<?xml version="1.0" encoding="utf-8" standalone="no"?>
<!DOCTYPE svg PUBLIC "-//W3C//DTD SVG 1.1//EN"
  "http://www.w3.org/Graphics/SVG/1.1/DTD/svg11.dtd">
<svg xmlns:xlink="http://www.w3.org/1999/xlink" width="460.8pt" height="345.6pt" viewBox="0 0 460.8 345.6" xmlns="http://www.w3.org/2000/svg" version="1.1">
 <metadata>
  <rdf:RDF xmlns:dc="http://purl.org/dc/elements/1.1/" xmlns:cc="http://creativecommons.org/ns#" xmlns:rdf="http://www.w3.org/1999/02/22-rdf-syntax-ns#">
   <cc:Work>
    <dc:type rdf:resource="http://purl.org/dc/dcmitype/StillImage"/>
    <dc:date>2022-05-25T19:57:57.335053</dc:date>
    <dc:format>image/svg+xml</dc:format>
    <dc:creator>
     <cc:Agent>
      <dc:title>Matplotlib v3.5.2, https://matplotlib.org/</dc:title>
     </cc:Agent>
    </dc:creator>
   </cc:Work>
  </rdf:RDF>
 </metadata>
 <defs>
  <style type="text/css">*{stroke-linejoin: round; stroke-linecap: butt}</style>
 </defs>
 <g id="figure_1">
  <g id="patch_1">
   <path d="M 0 345.6 
L 460.8 345.6 
L 460.8 0 
L 0 0 
z
" style="fill: #ffffff"/>
  </g>
  <g id="axes_1">
   <g id="patch_2">
    <path d="M 57.6 307.584 
L 414.72 307.584 
L 414.72 41.472 
L 57.6 41.472 
z
" style="fill: #ffffff"/>
   </g>
   <g id="matplotlib.axis_1">
    <g id="xtick_1">
     <g id="line2d_1">
      <path d="M 57.6 307.584 
L 57.6 41.472 
" clip-path="url(#pbe76ba14fb)" style="fill: none; stroke: #cccccc; stroke-linecap: round"/>
     </g>
     <g id="text_1">
      <!-- 0.0 -->
      <g style="fill: #262626" transform="translate(48.853281 325.442281)scale(0.11 -0.11)">
       <defs>
        <path id="DejaVuSans-30" d="M 2034 4250 
Q 1547 4250 1301 3770 
Q 1056 3291 1056 2328 
Q 1056 1369 1301 889 
Q 1547 409 2034 409 
Q 2525 409 2770 889 
Q 3016 1369 3016 2328 
Q 3016 3291 2770 3770 
Q 2525 4250 2034 4250 
z
M 2034 4750 
Q 2819 4750 3233 4129 
Q 3647 3509 3647 2328 
Q 3647 1150 3233 529 
Q 2819 -91 2034 -91 
Q 1250 -91 836 529 
Q 422 1150 422 2328 
Q 422 3509 836 4129 
Q 1250 4750 2034 4750 
z
" transform="scale(0.015625)"/>
        <path id="DejaVuSans-2e" d="M 684 794 
L 1344 794 
L 1344 0 
L 684 0 
L 684 794 
z
" transform="scale(0.015625)"/>
       </defs>
       <use xlink:href="#DejaVuSans-30"/>
       <use xlink:href="#DejaVuSans-2e" x="63.623047"/>
       <use xlink:href="#DejaVuSans-30" x="95.410156"/>
      </g>
     </g>
    </g>
    <g id="xtick_2">
     <g id="line2d_2">
      <path d="M 129.024 307.584 
L 129.024 41.472 
" clip-path="url(#pbe76ba14fb)" style="fill: none; stroke: #cccccc; stroke-linecap: round"/>
     </g>
     <g id="text_2">
      <!-- 0.2 -->
      <g style="fill: #262626" transform="translate(120.277281 325.442281)scale(0.11 -0.11)">
       <defs>
        <path id="DejaVuSans-32" d="M 1228 531 
L 3431 531 
L 3431 0 
L 469 0 
L 469 531 
Q 828 903 1448 1529 
Q 2069 2156 2228 2338 
Q 2531 2678 2651 2914 
Q 2772 3150 2772 3378 
Q 2772 3750 2511 3984 
Q 2250 4219 1831 4219 
Q 1534 4219 1204 4116 
Q 875 4013 500 3803 
L 500 4441 
Q 881 4594 1212 4672 
Q 1544 4750 1819 4750 
Q 2544 4750 2975 4387 
Q 3406 4025 3406 3419 
Q 3406 3131 3298 2873 
Q 3191 2616 2906 2266 
Q 2828 2175 2409 1742 
Q 1991 1309 1228 531 
z
" transform="scale(0.015625)"/>
       </defs>
       <use xlink:href="#DejaVuSans-30"/>
       <use xlink:href="#DejaVuSans-2e" x="63.623047"/>
       <use xlink:href="#DejaVuSans-32" x="95.410156"/>
      </g>
     </g>
    </g>
    <g id="xtick_3">
     <g id="line2d_3">
      <path d="M 200.448 307.584 
L 200.448 41.472 
" clip-path="url(#pbe76ba14fb)" style="fill: none; stroke: #cccccc; stroke-linecap: round"/>
     </g>
     <g id="text_3">
      <!-- 0.4 -->
      <g style="fill: #262626" transform="translate(191.701281 325.442281)scale(0.11 -0.11)">
       <defs>
        <path id="DejaVuSans-34" d="M 2419 4116 
L 825 1625 
L 2419 1625 
L 2419 4116 
z
M 2253 4666 
L 3047 4666 
L 3047 1625 
L 3713 1625 
L 3713 1100 
L 3047 1100 
L 3047 0 
L 2419 0 
L 2419 1100 
L 313 1100 
L 313 1709 
L 2253 4666 
z
" transform="scale(0.015625)"/>
       </defs>
       <use xlink:href="#DejaVuSans-30"/>
       <use xlink:href="#DejaVuSans-2e" x="63.623047"/>
       <use xlink:href="#DejaVuSans-34" x="95.410156"/>
      </g>
     </g>
    </g>
    <g id="xtick_4">
     <g id="line2d_4">
      <path d="M 271.872 307.584 
L 271.872 41.472 
" clip-path="url(#pbe76ba14fb)" style="fill: none; stroke: #cccccc; stroke-linecap: round"/>
     </g>
     <g id="text_4">
      <!-- 0.6 -->
      <g style="fill: #262626" transform="translate(263.125281 325.442281)scale(0.11 -0.11)">
       <defs>
        <path id="DejaVuSans-36" d="M 2113 2584 
Q 1688 2584 1439 2293 
Q 1191 2003 1191 1497 
Q 1191 994 1439 701 
Q 1688 409 2113 409 
Q 2538 409 2786 701 
Q 3034 994 3034 1497 
Q 3034 2003 2786 2293 
Q 2538 2584 2113 2584 
z
M 3366 4563 
L 3366 3988 
Q 3128 4100 2886 4159 
Q 2644 4219 2406 4219 
Q 1781 4219 1451 3797 
Q 1122 3375 1075 2522 
Q 1259 2794 1537 2939 
Q 1816 3084 2150 3084 
Q 2853 3084 3261 2657 
Q 3669 2231 3669 1497 
Q 3669 778 3244 343 
Q 2819 -91 2113 -91 
Q 1303 -91 875 529 
Q 447 1150 447 2328 
Q 447 3434 972 4092 
Q 1497 4750 2381 4750 
Q 2619 4750 2861 4703 
Q 3103 4656 3366 4563 
z
" transform="scale(0.015625)"/>
       </defs>
       <use xlink:href="#DejaVuSans-30"/>
       <use xlink:href="#DejaVuSans-2e" x="63.623047"/>
       <use xlink:href="#DejaVuSans-36" x="95.410156"/>
      </g>
     </g>
    </g>
    <g id="xtick_5">
     <g id="line2d_5">
      <path d="M 343.296 307.584 
L 343.296 41.472 
" clip-path="url(#pbe76ba14fb)" style="fill: none; stroke: #cccccc; stroke-linecap: round"/>
     </g>
     <g id="text_5">
      <!-- 0.8 -->
      <g style="fill: #262626" transform="translate(334.549281 325.442281)scale(0.11 -0.11)">
       <defs>
        <path id="DejaVuSans-38" d="M 2034 2216 
Q 1584 2216 1326 1975 
Q 1069 1734 1069 1313 
Q 1069 891 1326 650 
Q 1584 409 2034 409 
Q 2484 409 2743 651 
Q 3003 894 3003 1313 
Q 3003 1734 2745 1975 
Q 2488 2216 2034 2216 
z
M 1403 2484 
Q 997 2584 770 2862 
Q 544 3141 544 3541 
Q 544 4100 942 4425 
Q 1341 4750 2034 4750 
Q 2731 4750 3128 4425 
Q 3525 4100 3525 3541 
Q 3525 3141 3298 2862 
Q 3072 2584 2669 2484 
Q 3125 2378 3379 2068 
Q 3634 1759 3634 1313 
Q 3634 634 3220 271 
Q 2806 -91 2034 -91 
Q 1263 -91 848 271 
Q 434 634 434 1313 
Q 434 1759 690 2068 
Q 947 2378 1403 2484 
z
M 1172 3481 
Q 1172 3119 1398 2916 
Q 1625 2713 2034 2713 
Q 2441 2713 2670 2916 
Q 2900 3119 2900 3481 
Q 2900 3844 2670 4047 
Q 2441 4250 2034 4250 
Q 1625 4250 1398 4047 
Q 1172 3844 1172 3481 
z
" transform="scale(0.015625)"/>
       </defs>
       <use xlink:href="#DejaVuSans-30"/>
       <use xlink:href="#DejaVuSans-2e" x="63.623047"/>
       <use xlink:href="#DejaVuSans-38" x="95.410156"/>
      </g>
     </g>
    </g>
    <g id="xtick_6">
     <g id="line2d_6">
      <path d="M 414.72 307.584 
L 414.72 41.472 
" clip-path="url(#pbe76ba14fb)" style="fill: none; stroke: #cccccc; stroke-linecap: round"/>
     </g>
     <g id="text_6">
      <!-- 1.0 -->
      <g style="fill: #262626" transform="translate(405.973281 325.442281)scale(0.11 -0.11)">
       <defs>
        <path id="DejaVuSans-31" d="M 794 531 
L 1825 531 
L 1825 4091 
L 703 3866 
L 703 4441 
L 1819 4666 
L 2450 4666 
L 2450 531 
L 3481 531 
L 3481 0 
L 794 0 
L 794 531 
z
" transform="scale(0.015625)"/>
       </defs>
       <use xlink:href="#DejaVuSans-31"/>
       <use xlink:href="#DejaVuSans-2e" x="63.623047"/>
       <use xlink:href="#DejaVuSans-30" x="95.410156"/>
      </g>
     </g>
    </g>
    <g id="text_7">
     <!-- Value -->
     <g style="fill: #262626" transform="translate(219.6825 340.848062)scale(0.12 -0.12)">
      <defs>
       <path id="DejaVuSans-56" d="M 1831 0 
L 50 4666 
L 709 4666 
L 2188 738 
L 3669 4666 
L 4325 4666 
L 2547 0 
L 1831 0 
z
" transform="scale(0.015625)"/>
       <path id="DejaVuSans-61" d="M 2194 1759 
Q 1497 1759 1228 1600 
Q 959 1441 959 1056 
Q 959 750 1161 570 
Q 1363 391 1709 391 
Q 2188 391 2477 730 
Q 2766 1069 2766 1631 
L 2766 1759 
L 2194 1759 
z
M 3341 1997 
L 3341 0 
L 2766 0 
L 2766 531 
Q 2569 213 2275 61 
Q 1981 -91 1556 -91 
Q 1019 -91 701 211 
Q 384 513 384 1019 
Q 384 1609 779 1909 
Q 1175 2209 1959 2209 
L 2766 2209 
L 2766 2266 
Q 2766 2663 2505 2880 
Q 2244 3097 1772 3097 
Q 1472 3097 1187 3025 
Q 903 2953 641 2809 
L 641 3341 
Q 956 3463 1253 3523 
Q 1550 3584 1831 3584 
Q 2591 3584 2966 3190 
Q 3341 2797 3341 1997 
z
" transform="scale(0.015625)"/>
       <path id="DejaVuSans-6c" d="M 603 4863 
L 1178 4863 
L 1178 0 
L 603 0 
L 603 4863 
z
" transform="scale(0.015625)"/>
       <path id="DejaVuSans-75" d="M 544 1381 
L 544 3500 
L 1119 3500 
L 1119 1403 
Q 1119 906 1312 657 
Q 1506 409 1894 409 
Q 2359 409 2629 706 
Q 2900 1003 2900 1516 
L 2900 3500 
L 3475 3500 
L 3475 0 
L 2900 0 
L 2900 538 
Q 2691 219 2414 64 
Q 2138 -91 1772 -91 
Q 1169 -91 856 284 
Q 544 659 544 1381 
z
M 1991 3584 
L 1991 3584 
z
" transform="scale(0.015625)"/>
       <path id="DejaVuSans-65" d="M 3597 1894 
L 3597 1613 
L 953 1613 
Q 991 1019 1311 708 
Q 1631 397 2203 397 
Q 2534 397 2845 478 
Q 3156 559 3463 722 
L 3463 178 
Q 3153 47 2828 -22 
Q 2503 -91 2169 -91 
Q 1331 -91 842 396 
Q 353 884 353 1716 
Q 353 2575 817 3079 
Q 1281 3584 2069 3584 
Q 2775 3584 3186 3129 
Q 3597 2675 3597 1894 
z
M 3022 2063 
Q 3016 2534 2758 2815 
Q 2500 3097 2075 3097 
Q 1594 3097 1305 2825 
Q 1016 2553 972 2059 
L 3022 2063 
z
" transform="scale(0.015625)"/>
      </defs>
      <use xlink:href="#DejaVuSans-56"/>
      <use xlink:href="#DejaVuSans-61" x="60.658203"/>
      <use xlink:href="#DejaVuSans-6c" x="121.9375"/>
      <use xlink:href="#DejaVuSans-75" x="149.720703"/>
      <use xlink:href="#DejaVuSans-65" x="213.099609"/>
     </g>
    </g>
   </g>
   <g id="matplotlib.axis_2">
    <g id="ytick_1">
     <g id="line2d_7">
      <path d="M 57.6 307.584 
L 414.72 307.584 
" clip-path="url(#pbe76ba14fb)" style="fill: none; stroke: #cccccc; stroke-linecap: round"/>
     </g>
     <g id="text_8">
      <!-- 0.0 -->
      <g style="fill: #262626" transform="translate(30.606563 311.763141)scale(0.11 -0.11)">
       <use xlink:href="#DejaVuSans-30"/>
       <use xlink:href="#DejaVuSans-2e" x="63.623047"/>
       <use xlink:href="#DejaVuSans-30" x="95.410156"/>
      </g>
     </g>
    </g>
    <g id="ytick_2">
     <g id="line2d_8">
      <path d="M 57.6 274.32 
L 414.72 274.32 
" clip-path="url(#pbe76ba14fb)" style="fill: none; stroke: #cccccc; stroke-linecap: round"/>
     </g>
     <g id="text_9">
      <!-- 0.5 -->
      <g style="fill: #262626" transform="translate(30.606563 278.499141)scale(0.11 -0.11)">
       <defs>
        <path id="DejaVuSans-35" d="M 691 4666 
L 3169 4666 
L 3169 4134 
L 1269 4134 
L 1269 2991 
Q 1406 3038 1543 3061 
Q 1681 3084 1819 3084 
Q 2600 3084 3056 2656 
Q 3513 2228 3513 1497 
Q 3513 744 3044 326 
Q 2575 -91 1722 -91 
Q 1428 -91 1123 -41 
Q 819 9 494 109 
L 494 744 
Q 775 591 1075 516 
Q 1375 441 1709 441 
Q 2250 441 2565 725 
Q 2881 1009 2881 1497 
Q 2881 1984 2565 2268 
Q 2250 2553 1709 2553 
Q 1456 2553 1204 2497 
Q 953 2441 691 2322 
L 691 4666 
z
" transform="scale(0.015625)"/>
       </defs>
       <use xlink:href="#DejaVuSans-30"/>
       <use xlink:href="#DejaVuSans-2e" x="63.623047"/>
       <use xlink:href="#DejaVuSans-35" x="95.410156"/>
      </g>
     </g>
    </g>
    <g id="ytick_3">
     <g id="line2d_9">
      <path d="M 57.6 241.056 
L 414.72 241.056 
" clip-path="url(#pbe76ba14fb)" style="fill: none; stroke: #cccccc; stroke-linecap: round"/>
     </g>
     <g id="text_10">
      <!-- 1.0 -->
      <g style="fill: #262626" transform="translate(30.606563 245.235141)scale(0.11 -0.11)">
       <use xlink:href="#DejaVuSans-31"/>
       <use xlink:href="#DejaVuSans-2e" x="63.623047"/>
       <use xlink:href="#DejaVuSans-30" x="95.410156"/>
      </g>
     </g>
    </g>
    <g id="ytick_4">
     <g id="line2d_10">
      <path d="M 57.6 207.792 
L 414.72 207.792 
" clip-path="url(#pbe76ba14fb)" style="fill: none; stroke: #cccccc; stroke-linecap: round"/>
     </g>
     <g id="text_11">
      <!-- 1.5 -->
      <g style="fill: #262626" transform="translate(30.606563 211.971141)scale(0.11 -0.11)">
       <use xlink:href="#DejaVuSans-31"/>
       <use xlink:href="#DejaVuSans-2e" x="63.623047"/>
       <use xlink:href="#DejaVuSans-35" x="95.410156"/>
      </g>
     </g>
    </g>
    <g id="ytick_5">
     <g id="line2d_11">
      <path d="M 57.6 174.528 
L 414.72 174.528 
" clip-path="url(#pbe76ba14fb)" style="fill: none; stroke: #cccccc; stroke-linecap: round"/>
     </g>
     <g id="text_12">
      <!-- 2.0 -->
      <g style="fill: #262626" transform="translate(30.606563 178.707141)scale(0.11 -0.11)">
       <use xlink:href="#DejaVuSans-32"/>
       <use xlink:href="#DejaVuSans-2e" x="63.623047"/>
       <use xlink:href="#DejaVuSans-30" x="95.410156"/>
      </g>
     </g>
    </g>
    <g id="ytick_6">
     <g id="line2d_12">
      <path d="M 57.6 141.264 
L 414.72 141.264 
" clip-path="url(#pbe76ba14fb)" style="fill: none; stroke: #cccccc; stroke-linecap: round"/>
     </g>
     <g id="text_13">
      <!-- 2.5 -->
      <g style="fill: #262626" transform="translate(30.606563 145.443141)scale(0.11 -0.11)">
       <use xlink:href="#DejaVuSans-32"/>
       <use xlink:href="#DejaVuSans-2e" x="63.623047"/>
       <use xlink:href="#DejaVuSans-35" x="95.410156"/>
      </g>
     </g>
    </g>
    <g id="ytick_7">
     <g id="line2d_13">
      <path d="M 57.6 108 
L 414.72 108 
" clip-path="url(#pbe76ba14fb)" style="fill: none; stroke: #cccccc; stroke-linecap: round"/>
     </g>
     <g id="text_14">
      <!-- 3.0 -->
      <g style="fill: #262626" transform="translate(30.606563 112.179141)scale(0.11 -0.11)">
       <defs>
        <path id="DejaVuSans-33" d="M 2597 2516 
Q 3050 2419 3304 2112 
Q 3559 1806 3559 1356 
Q 3559 666 3084 287 
Q 2609 -91 1734 -91 
Q 1441 -91 1130 -33 
Q 819 25 488 141 
L 488 750 
Q 750 597 1062 519 
Q 1375 441 1716 441 
Q 2309 441 2620 675 
Q 2931 909 2931 1356 
Q 2931 1769 2642 2001 
Q 2353 2234 1838 2234 
L 1294 2234 
L 1294 2753 
L 1863 2753 
Q 2328 2753 2575 2939 
Q 2822 3125 2822 3475 
Q 2822 3834 2567 4026 
Q 2313 4219 1838 4219 
Q 1578 4219 1281 4162 
Q 984 4106 628 3988 
L 628 4550 
Q 988 4650 1302 4700 
Q 1616 4750 1894 4750 
Q 2613 4750 3031 4423 
Q 3450 4097 3450 3541 
Q 3450 3153 3228 2886 
Q 3006 2619 2597 2516 
z
" transform="scale(0.015625)"/>
       </defs>
       <use xlink:href="#DejaVuSans-33"/>
       <use xlink:href="#DejaVuSans-2e" x="63.623047"/>
       <use xlink:href="#DejaVuSans-30" x="95.410156"/>
      </g>
     </g>
    </g>
    <g id="ytick_8">
     <g id="line2d_14">
      <path d="M 57.6 74.736 
L 414.72 74.736 
" clip-path="url(#pbe76ba14fb)" style="fill: none; stroke: #cccccc; stroke-linecap: round"/>
     </g>
     <g id="text_15">
      <!-- 3.5 -->
      <g style="fill: #262626" transform="translate(30.606563 78.915141)scale(0.11 -0.11)">
       <use xlink:href="#DejaVuSans-33"/>
       <use xlink:href="#DejaVuSans-2e" x="63.623047"/>
       <use xlink:href="#DejaVuSans-35" x="95.410156"/>
      </g>
     </g>
    </g>
    <g id="ytick_9">
     <g id="line2d_15">
      <path d="M 57.6 41.472 
L 414.72 41.472 
" clip-path="url(#pbe76ba14fb)" style="fill: none; stroke: #cccccc; stroke-linecap: round"/>
     </g>
     <g id="text_16">
      <!-- 4.0 -->
      <g style="fill: #262626" transform="translate(30.606563 45.651141)scale(0.11 -0.11)">
       <use xlink:href="#DejaVuSans-34"/>
       <use xlink:href="#DejaVuSans-2e" x="63.623047"/>
       <use xlink:href="#DejaVuSans-30" x="95.410156"/>
      </g>
     </g>
    </g>
    <g id="text_17">
     <!-- Density -->
     <g style="fill: #262626" transform="translate(24.110937 197.338313)rotate(-90)scale(0.12 -0.12)">
      <defs>
       <path id="DejaVuSans-44" d="M 1259 4147 
L 1259 519 
L 2022 519 
Q 2988 519 3436 956 
Q 3884 1394 3884 2338 
Q 3884 3275 3436 3711 
Q 2988 4147 2022 4147 
L 1259 4147 
z
M 628 4666 
L 1925 4666 
Q 3281 4666 3915 4102 
Q 4550 3538 4550 2338 
Q 4550 1131 3912 565 
Q 3275 0 1925 0 
L 628 0 
L 628 4666 
z
" transform="scale(0.015625)"/>
       <path id="DejaVuSans-6e" d="M 3513 2113 
L 3513 0 
L 2938 0 
L 2938 2094 
Q 2938 2591 2744 2837 
Q 2550 3084 2163 3084 
Q 1697 3084 1428 2787 
Q 1159 2491 1159 1978 
L 1159 0 
L 581 0 
L 581 3500 
L 1159 3500 
L 1159 2956 
Q 1366 3272 1645 3428 
Q 1925 3584 2291 3584 
Q 2894 3584 3203 3211 
Q 3513 2838 3513 2113 
z
" transform="scale(0.015625)"/>
       <path id="DejaVuSans-73" d="M 2834 3397 
L 2834 2853 
Q 2591 2978 2328 3040 
Q 2066 3103 1784 3103 
Q 1356 3103 1142 2972 
Q 928 2841 928 2578 
Q 928 2378 1081 2264 
Q 1234 2150 1697 2047 
L 1894 2003 
Q 2506 1872 2764 1633 
Q 3022 1394 3022 966 
Q 3022 478 2636 193 
Q 2250 -91 1575 -91 
Q 1294 -91 989 -36 
Q 684 19 347 128 
L 347 722 
Q 666 556 975 473 
Q 1284 391 1588 391 
Q 1994 391 2212 530 
Q 2431 669 2431 922 
Q 2431 1156 2273 1281 
Q 2116 1406 1581 1522 
L 1381 1569 
Q 847 1681 609 1914 
Q 372 2147 372 2553 
Q 372 3047 722 3315 
Q 1072 3584 1716 3584 
Q 2034 3584 2315 3537 
Q 2597 3491 2834 3397 
z
" transform="scale(0.015625)"/>
       <path id="DejaVuSans-69" d="M 603 3500 
L 1178 3500 
L 1178 0 
L 603 0 
L 603 3500 
z
M 603 4863 
L 1178 4863 
L 1178 4134 
L 603 4134 
L 603 4863 
z
" transform="scale(0.015625)"/>
       <path id="DejaVuSans-74" d="M 1172 4494 
L 1172 3500 
L 2356 3500 
L 2356 3053 
L 1172 3053 
L 1172 1153 
Q 1172 725 1289 603 
Q 1406 481 1766 481 
L 2356 481 
L 2356 0 
L 1766 0 
Q 1100 0 847 248 
Q 594 497 594 1153 
L 594 3053 
L 172 3053 
L 172 3500 
L 594 3500 
L 594 4494 
L 1172 4494 
z
" transform="scale(0.015625)"/>
       <path id="DejaVuSans-79" d="M 2059 -325 
Q 1816 -950 1584 -1140 
Q 1353 -1331 966 -1331 
L 506 -1331 
L 506 -850 
L 844 -850 
Q 1081 -850 1212 -737 
Q 1344 -625 1503 -206 
L 1606 56 
L 191 3500 
L 800 3500 
L 1894 763 
L 2988 3500 
L 3597 3500 
L 2059 -325 
z
" transform="scale(0.015625)"/>
      </defs>
      <use xlink:href="#DejaVuSans-44"/>
      <use xlink:href="#DejaVuSans-65" x="77.001953"/>
      <use xlink:href="#DejaVuSans-6e" x="138.525391"/>
      <use xlink:href="#DejaVuSans-73" x="201.904297"/>
      <use xlink:href="#DejaVuSans-69" x="254.003906"/>
      <use xlink:href="#DejaVuSans-74" x="281.787109"/>
      <use xlink:href="#DejaVuSans-79" x="320.996094"/>
     </g>
    </g>
   </g>
   <g id="line2d_16">
    <path d="M 57.6 293.261852 
L 62.56 293.261852 
L 62.56 269.886574 
L 67.52 269.886574 
L 67.52 247.229798 
L 72.48 247.229798 
L 72.48 230.991644 
L 77.44 230.991644 
L 77.44 210.538276 
L 82.4 210.538276 
L 82.4 199.185938 
L 87.36 199.185938 
L 87.36 182.851983 
L 92.32 182.851983 
L 92.32 175.235858 
L 97.28 175.235858 
L 97.28 167.428132 
L 102.24 167.428132 
L 102.24 156.650596 
L 107.2 156.650596 
L 107.2 154.447188 
L 112.16 154.447188 
L 112.16 144.867156 
L 117.12 144.867156 
L 117.12 145.92096 
L 122.08 145.92096 
L 122.08 147.070564 
L 127.04 147.070564 
L 127.04 147.214264 
L 132 147.214264 
L 132 142.80745 
L 136.96 142.80745 
L 136.96 141.753646 
L 141.92 141.753646 
L 141.92 148.98657 
L 146.88 148.98657 
L 146.88 154.87829 
L 151.84 154.87829 
L 151.84 155.165691 
L 156.8 155.165691 
L 156.8 160.530509 
L 161.76 160.530509 
L 161.76 161.871713 
L 166.72 161.871713 
L 166.72 169.72734 
L 171.68 169.72734 
L 171.68 177.630866 
L 176.64 177.630866 
L 176.64 182.085581 
L 181.6 182.085581 
L 181.6 182.851983 
L 186.56 182.851983 
L 186.56 187.641999 
L 191.52 187.641999 
L 191.52 192.288315 
L 196.48 192.288315 
L 196.48 198.132134 
L 201.44 198.132134 
L 201.44 207.951667 
L 206.4 207.951667 
L 206.4 213.795487 
L 211.36 213.795487 
L 211.36 220.980511 
L 216.32 220.980511 
L 216.32 226.057928 
L 221.28 226.057928 
L 221.28 231.997548 
L 226.24 231.997548 
L 226.24 239.086771 
L 231.2 239.086771 
L 231.2 240.332175 
L 236.16 240.332175 
L 236.16 249.002104 
L 241.12 249.002104 
L 241.12 254.462723 
L 246.08 254.462723 
L 246.08 255.133325 
L 251.04 255.133325 
L 251.04 260.067041 
L 256 260.067041 
L 256 265.52766 
L 260.96 265.52766 
L 260.96 271.56308 
L 265.92 271.56308 
L 265.92 275.778294 
L 270.88 275.778294 
L 270.88 276.496796 
L 275.84 276.496796 
L 275.84 282.819617 
L 280.8 282.819617 
L 280.8 283.72972 
L 285.76 283.72972 
L 285.76 287.465933 
L 290.72 287.465933 
L 290.72 288.998738 
L 295.68 288.998738 
L 295.68 293.022351 
L 300.64 293.022351 
L 300.64 292.782851 
L 305.6 292.782851 
L 305.6 295.46526 
L 310.56 295.46526 
L 310.56 298.243469 
L 315.52 298.243469 
L 315.52 300.494776 
L 320.48 300.494776 
L 320.48 301.54858 
L 325.44 301.54858 
L 325.44 302.650284 
L 330.4 302.650284 
L 330.4 303.129285 
L 335.36 303.129285 
L 335.36 304.183089 
L 340.32 304.183089 
L 340.32 305.332692 
L 350.24 305.284792 
L 350.24 306.338596 
L 360.16 306.338596 
L 360.16 306.913398 
L 370.08 306.865498 
L 370.08 307.104998 
L 375.04 307.104998 
L 375.04 307.296599 
L 389.92 307.344499 
L 389.92 307.584 
L 414.72 307.584 
L 414.72 307.584 
" clip-path="url(#pbe76ba14fb)" style="fill: none; stroke: #8172b3; stroke-width: 1.5; stroke-linecap: round"/>
   </g>
   <g id="line2d_17">
    <path d="M 57.6 304.757891 
L 62.56 304.757891 
L 62.56 299.872074 
L 67.52 299.872074 
L 67.52 294.842557 
L 72.48 294.842557 
L 72.48 289.381939 
L 77.44 289.381939 
L 77.44 286.124728 
L 82.4 286.124728 
L 82.4 279.370806 
L 87.36 279.370806 
L 87.36 275.921994 
L 92.32 275.921994 
L 92.32 270.221875 
L 97.28 270.221875 
L 97.28 267.826867 
L 102.24 267.826867 
L 102.24 259.300639 
L 107.2 259.300639 
L 107.2 259.73174 
L 112.16 259.73174 
L 112.16 254.606423 
L 117.12 254.606423 
L 117.12 248.235702 
L 122.08 248.235702 
L 122.08 244.64319 
L 127.04 244.64319 
L 127.04 242.679283 
L 132 242.679283 
L 132 241.146478 
L 136.96 241.146478 
L 136.96 237.122865 
L 141.92 237.122865 
L 141.92 231.614346 
L 146.88 231.614346 
L 146.88 231.279045 
L 151.84 231.279045 
L 151.84 230.177341 
L 156.8 230.177341 
L 156.8 221.507412 
L 161.76 221.507412 
L 161.76 224.764623 
L 166.72 224.764623 
L 166.72 220.357809 
L 171.68 220.357809 
L 171.68 219.639306 
L 176.64 219.639306 
L 176.64 218.537603 
L 181.6 218.537603 
L 181.6 219.351905 
L 186.56 219.351905 
L 186.56 218.298102 
L 191.52 218.298102 
L 191.52 213.508086 
L 196.48 213.508086 
L 196.48 211.256778 
L 201.44 211.256778 
L 201.44 212.118981 
L 206.4 212.118981 
L 206.4 213.603886 
L 211.36 213.603886 
L 211.36 210.250875 
L 216.32 210.250875 
L 216.32 204.694456 
L 221.28 204.694456 
L 221.28 210.394575 
L 226.24 210.394575 
L 226.24 211.113078 
L 231.2 211.113078 
L 231.2 206.275162 
L 236.16 206.275162 
L 236.16 211.160978 
L 241.12 211.160978 
L 241.12 207.281065 
L 246.08 207.281065 
L 246.08 208.239068 
L 251.04 208.239068 
L 251.04 206.706263 
L 256 206.706263 
L 256 207.185265 
L 260.96 207.185265 
L 260.96 213.939187 
L 265.92 213.939187 
L 265.92 212.358482 
L 270.88 212.358482 
L 270.88 215.088791 
L 275.84 215.088791 
L 275.84 215.424092 
L 280.8 215.424092 
L 280.8 212.118981 
L 285.76 212.118981 
L 285.76 215.615693 
L 290.72 215.615693 
L 290.72 217.6275 
L 295.68 217.6275 
L 295.68 217.483799 
L 300.64 217.483799 
L 300.64 222.130115 
L 305.6 222.130115 
L 305.6 225.291525 
L 310.56 225.291525 
L 310.56 226.345329 
L 315.52 226.345329 
L 315.52 226.87223 
L 320.48 226.87223 
L 320.48 233.578253 
L 325.44 233.578253 
L 325.44 234.727857 
L 330.4 234.727857 
L 330.4 236.404362 
L 335.36 236.404362 
L 335.36 239.422072 
L 340.32 239.422072 
L 340.32 241.433879 
L 345.28 241.433879 
L 345.28 246.894497 
L 350.24 246.894497 
L 350.24 252.067715 
L 355.2 252.067715 
L 355.2 250.63071 
L 360.16 250.63071 
L 360.16 256.187128 
L 365.12 256.187128 
L 365.12 261.312445 
L 370.08 261.312445 
L 370.08 263.946954 
L 375.04 263.946954 
L 375.04 269.742874 
L 380 269.742874 
L 380 273.958088 
L 384.96 273.958088 
L 384.96 279.849807 
L 389.92 279.849807 
L 389.92 283.011218 
L 394.88 283.011218 
L 394.88 289.66934 
L 399.84 289.66934 
L 399.84 293.645053 
L 404.8 293.645053 
L 404.8 299.488873 
L 409.76 299.488873 
L 409.76 304.66209 
L 414.72 304.66209 
L 414.72 304.66209 
" clip-path="url(#pbe76ba14fb)" style="fill: none; stroke: #c44e52; stroke-width: 1.5; stroke-linecap: round"/>
   </g>
   <g id="line2d_18">
    <path d="M 57.6 107.744532 
L 62.56 107.744532 
L 62.56 115.93546 
L 67.52 115.93546 
L 67.52 124.98859 
L 72.48 124.98859 
L 72.48 123.886886 
L 77.44 123.886886 
L 77.44 130.066007 
L 82.4 130.066007 
L 82.4 137.634232 
L 87.36 137.634232 
L 87.36 149.705073 
L 92.32 149.705073 
L 92.32 145.441958 
L 97.28 145.441958 
L 97.28 153.489185 
L 102.24 153.489185 
L 102.24 159.764106 
L 107.2 159.764106 
L 107.2 159.620406 
L 112.16 159.620406 
L 112.16 165.799526 
L 117.12 165.799526 
L 117.12 168.817236 
L 122.08 168.817236 
L 122.08 174.469455 
L 127.04 174.469455 
L 127.04 177.918267 
L 132 177.918267 
L 132 186.300795 
L 136.96 186.300795 
L 136.96 189.462205 
L 141.92 189.462205 
L 141.92 195.258125 
L 146.88 195.258125 
L 146.88 198.371635 
L 151.84 198.371635 
L 151.84 202.012047 
L 156.8 202.012047 
L 156.8 208.430669 
L 161.76 208.430669 
L 161.76 207.712166 
L 166.72 207.712166 
L 166.72 213.603886 
L 171.68 213.603886 
L 171.68 215.184591 
L 176.64 215.184591 
L 176.64 220.74101 
L 181.6 220.74101 
L 181.6 225.483126 
L 191.52 225.435226 
L 191.52 232.189148 
L 196.48 232.189148 
L 196.48 235.254758 
L 201.44 235.254758 
L 201.44 238.895171 
L 206.4 238.895171 
L 206.4 240.811177 
L 211.36 240.811177 
L 211.36 245.170092 
L 216.32 245.170092 
L 216.32 249.289505 
L 221.28 249.289505 
L 221.28 248.475203 
L 226.24 248.475203 
L 226.24 252.642516 
L 231.2 252.642516 
L 231.2 253.504719 
L 236.16 253.504719 
L 236.16 258.821637 
L 241.12 258.821637 
L 241.12 261.120845 
L 246.08 261.120845 
L 246.08 265.431859 
L 251.04 265.431859 
L 251.04 267.395766 
L 256 267.395766 
L 256 271.323579 
L 265.92 271.227779 
L 265.92 273.622787 
L 270.88 273.622787 
L 270.88 279.035505 
L 275.84 279.035505 
L 275.84 279.801907 
L 280.8 279.801907 
L 280.8 280.328809 
L 285.76 280.328809 
L 285.76 281.670013 
L 290.72 281.670013 
L 290.72 283.873421 
L 295.68 283.873421 
L 295.68 285.310426 
L 300.64 285.310426 
L 300.64 288.711337 
L 305.6 288.711337 
L 305.6 288.998738 
L 310.56 288.998738 
L 310.56 291.585347 
L 315.52 291.585347 
L 315.52 294.076155 
L 320.48 294.076155 
L 320.48 293.740854 
L 325.44 293.740854 
L 325.44 296.471163 
L 330.4 296.471163 
L 330.4 297.333366 
L 335.36 297.333366 
L 335.36 298.147668 
L 340.32 298.147668 
L 340.32 300.063675 
L 345.28 300.063675 
L 345.28 301.069578 
L 350.24 301.069578 
L 350.24 300.925878 
L 355.2 300.925878 
L 355.2 302.314982 
L 365.12 302.219182 
L 365.12 304.135188 
L 375.04 304.039388 
L 375.04 305.428493 
L 380 305.428493 
L 380 305.620093 
L 384.96 305.620093 
L 384.96 306.578097 
L 389.92 306.578097 
L 389.92 306.817597 
L 399.84 306.769697 
L 399.84 307.344499 
L 404.8 307.344499 
L 404.8 307.584 
L 414.72 307.584 
L 414.72 307.584 
" clip-path="url(#pbe76ba14fb)" style="fill: none; stroke: #55a868; stroke-width: 1.5; stroke-linecap: round"/>
   </g>
   <g id="line2d_19">
    <path d="M 57.6 307.584 
L 102.24 307.584 
L 102.24 307.344499 
L 107.2 307.344499 
L 107.2 307.5361 
L 112.16 307.5361 
L 112.16 307.296599 
L 122.08 307.200799 
L 122.08 307.152899 
L 127.04 307.152899 
L 127.04 306.961298 
L 132 306.961298 
L 132 306.817597 
L 136.96 306.817597 
L 136.96 306.242796 
L 141.92 306.242796 
L 141.92 306.625997 
L 146.88 306.625997 
L 146.88 305.859594 
L 151.84 305.859594 
L 151.84 305.380593 
L 156.8 305.380593 
L 156.8 305.045292 
L 166.72 305.045292 
L 166.72 304.326789 
L 171.68 304.326789 
L 171.68 303.320886 
L 176.64 303.320886 
L 176.64 303.033485 
L 181.6 303.033485 
L 181.6 302.506583 
L 186.56 302.506583 
L 186.56 301.309079 
L 191.52 301.309079 
L 191.52 299.967875 
L 196.48 299.967875 
L 196.48 300.542676 
L 201.44 300.542676 
L 201.44 298.339269 
L 206.4 298.339269 
L 206.4 297.812367 
L 211.36 297.812367 
L 211.36 296.614863 
L 216.32 296.614863 
L 216.32 293.405553 
L 221.28 293.405553 
L 221.28 292.112248 
L 226.24 292.112248 
L 226.24 290.052541 
L 231.2 290.052541 
L 231.2 287.992835 
L 236.16 287.992835 
L 236.16 286.076828 
L 241.12 286.076828 
L 241.12 284.352422 
L 246.08 284.352422 
L 246.08 281.574213 
L 251.04 281.574213 
L 251.04 278.077501 
L 256 278.077501 
L 256 272.281582 
L 260.96 272.281582 
L 260.96 270.892477 
L 265.92 270.892477 
L 265.92 266.725164 
L 270.88 266.725164 
L 270.88 264.617556 
L 275.84 264.617556 
L 275.84 256.66613 
L 280.8 256.66613 
L 280.8 254.079521 
L 285.76 254.079521 
L 285.76 250.67861 
L 290.72 250.67861 
L 290.72 241.529679 
L 295.68 241.529679 
L 295.68 239.134671 
L 300.64 239.134671 
L 300.64 232.380749 
L 305.6 232.380749 
L 305.6 230.943744 
L 310.56 230.943744 
L 310.56 221.459512 
L 315.52 221.459512 
L 315.52 215.280392 
L 320.48 215.280392 
L 320.48 204.598656 
L 325.44 204.598656 
L 325.44 202.203648 
L 330.4 202.203648 
L 330.4 184.145288 
L 335.36 184.145288 
L 335.36 177.774566 
L 340.32 177.774566 
L 340.32 169.487839 
L 345.28 169.487839 
L 345.28 157.512799 
L 350.24 157.512799 
L 350.24 154.97409 
L 355.2 154.97409 
L 355.2 146.831063 
L 360.16 146.831063 
L 360.16 122.976783 
L 365.12 122.976783 
L 365.12 119.09687 
L 370.08 119.09687 
L 370.08 105.684826 
L 375.04 105.684826 
L 375.04 95.721592 
L 380 95.721592 
L 380 81.016243 
L 384.96 81.016243 
L 384.96 69.232804 
L 389.92 69.232804 
L 389.92 47.24663 
L 394.88 47.24663 
L 394.88 33.259784 
L 399.84 33.259784 
L 399.84 23.679752 
L 404.8 23.679752 
L 404.8 -1 
L 404.8 -1 
" clip-path="url(#pbe76ba14fb)" style="fill: none; stroke: #dd8452; stroke-width: 1.5; stroke-linecap: round"/>
   </g>
   <g id="line2d_20">
    <path d="M 62.56 -1 
L 62.56 151.333678 
L 67.52 151.333678 
L 67.52 189.701706 
L 72.48 189.701706 
L 72.48 210.107174 
L 77.44 210.107174 
L 77.44 219.543506 
L 82.4 219.543506 
L 82.4 231.805947 
L 87.36 231.805947 
L 87.36 233.626153 
L 92.32 233.626153 
L 92.32 241.86498 
L 97.28 241.86498 
L 97.28 243.541486 
L 102.24 243.541486 
L 102.24 246.128095 
L 107.2 246.128095 
L 107.2 247.229798 
L 112.16 247.229798 
L 112.16 250.72651 
L 117.12 250.72651 
L 117.12 253.69632 
L 122.08 253.69632 
L 122.08 252.450916 
L 127.04 252.450916 
L 127.04 255.564426 
L 132 255.564426 
L 132 259.156938 
L 136.96 259.156938 
L 136.96 258.246835 
L 141.92 258.246835 
L 141.92 259.77964 
L 146.88 259.77964 
L 146.88 259.492239 
L 151.84 259.492239 
L 151.84 262.318349 
L 156.8 262.318349 
L 156.8 256.043428 
L 161.76 256.043428 
L 161.76 261.120845 
L 166.72 261.120845 
L 166.72 262.462049 
L 171.68 262.462049 
L 171.68 261.647747 
L 176.64 261.647747 
L 176.64 263.132652 
L 181.6 263.132652 
L 181.6 261.168745 
L 186.56 261.168745 
L 186.56 265.000758 
L 191.52 265.000758 
L 191.52 262.845251 
L 196.48 262.845251 
L 196.48 263.659553 
L 201.44 263.659553 
L 201.44 262.366249 
L 206.4 262.366249 
L 206.4 261.599846 
L 211.36 261.599846 
L 211.36 265.144458 
L 216.32 265.144458 
L 216.32 264.521756 
L 221.28 264.521756 
L 221.28 263.132652 
L 226.24 263.132652 
L 226.24 262.893151 
L 231.2 262.893151 
L 231.2 266.198262 
L 236.16 266.198262 
L 236.16 263.755354 
L 241.12 263.755354 
L 241.12 265.958761 
L 246.08 265.958761 
L 246.08 266.820964 
L 251.04 266.820964 
L 251.04 266.437763 
L 256 266.437763 
L 256 263.467953 
L 260.96 263.467953 
L 260.96 264.042755 
L 265.92 264.042755 
L 265.92 266.773064 
L 270.88 266.773064 
L 270.88 264.665457 
L 275.84 264.665457 
L 275.84 265.336059 
L 280.8 265.336059 
L 280.8 263.132652 
L 285.76 263.132652 
L 285.76 261.935148 
L 290.72 261.935148 
L 290.72 263.228452 
L 295.68 263.228452 
L 295.68 262.222548 
L 300.64 262.222548 
L 300.64 263.659553 
L 305.6 263.659553 
L 305.6 262.509949 
L 310.56 262.509949 
L 310.56 261.025044 
L 315.52 261.025044 
L 315.52 259.54014 
L 325.44 259.492239 
L 325.44 257.097231 
L 330.4 257.097231 
L 330.4 254.798024 
L 335.36 254.798024 
L 335.36 255.324925 
L 340.32 255.324925 
L 340.32 254.462723 
L 345.28 254.462723 
L 345.28 253.025718 
L 350.24 253.025718 
L 350.24 251.780314 
L 355.2 251.780314 
L 355.2 250.63071 
L 360.16 250.63071 
L 360.16 246.798697 
L 365.12 246.798697 
L 365.12 241.290179 
L 370.08 241.290179 
L 370.08 237.745567 
L 375.04 237.745567 
L 375.04 240.811177 
L 380 240.811177 
L 380 231.662246 
L 384.96 231.662246 
L 384.96 230.081541 
L 389.92 230.081541 
L 389.92 219.495606 
L 394.88 219.495606 
L 394.88 208.86177 
L 399.84 208.86177 
L 399.84 193.246318 
L 404.8 193.246318 
L 404.8 160.722109 
L 409.76 160.722109 
L 409.76 -1 
L 409.76 -1 
" clip-path="url(#pbe76ba14fb)" style="fill: none; stroke: #4c72b0; stroke-width: 1.5; stroke-linecap: round"/>
   </g>
   <g id="patch_3">
    <path d="M 57.6 307.584 
L 57.6 41.472 
" style="fill: none; stroke: #cccccc; stroke-width: 1.25; stroke-linejoin: miter; stroke-linecap: square"/>
   </g>
   <g id="patch_4">
    <path d="M 414.72 307.584 
L 414.72 41.472 
" style="fill: none; stroke: #cccccc; stroke-width: 1.25; stroke-linejoin: miter; stroke-linecap: square"/>
   </g>
   <g id="patch_5">
    <path d="M 57.6 307.584 
L 414.72 307.584 
" style="fill: none; stroke: #cccccc; stroke-width: 1.25; stroke-linejoin: miter; stroke-linecap: square"/>
   </g>
   <g id="patch_6">
    <path d="M 57.6 41.472 
L 414.72 41.472 
" style="fill: none; stroke: #cccccc; stroke-width: 1.25; stroke-linejoin: miter; stroke-linecap: square"/>
   </g>
   <g id="text_18">
    <!-- Beta Distribution -->
    <g style="fill: #262626" transform="translate(185.413125 35.472)scale(0.12 -0.12)">
     <defs>
      <path id="DejaVuSans-42" d="M 1259 2228 
L 1259 519 
L 2272 519 
Q 2781 519 3026 730 
Q 3272 941 3272 1375 
Q 3272 1813 3026 2020 
Q 2781 2228 2272 2228 
L 1259 2228 
z
M 1259 4147 
L 1259 2741 
L 2194 2741 
Q 2656 2741 2882 2914 
Q 3109 3088 3109 3444 
Q 3109 3797 2882 3972 
Q 2656 4147 2194 4147 
L 1259 4147 
z
M 628 4666 
L 2241 4666 
Q 2963 4666 3353 4366 
Q 3744 4066 3744 3513 
Q 3744 3084 3544 2831 
Q 3344 2578 2956 2516 
Q 3422 2416 3680 2098 
Q 3938 1781 3938 1306 
Q 3938 681 3513 340 
Q 3088 0 2303 0 
L 628 0 
L 628 4666 
z
" transform="scale(0.015625)"/>
      <path id="DejaVuSans-20" transform="scale(0.015625)"/>
      <path id="DejaVuSans-72" d="M 2631 2963 
Q 2534 3019 2420 3045 
Q 2306 3072 2169 3072 
Q 1681 3072 1420 2755 
Q 1159 2438 1159 1844 
L 1159 0 
L 581 0 
L 581 3500 
L 1159 3500 
L 1159 2956 
Q 1341 3275 1631 3429 
Q 1922 3584 2338 3584 
Q 2397 3584 2469 3576 
Q 2541 3569 2628 3553 
L 2631 2963 
z
" transform="scale(0.015625)"/>
      <path id="DejaVuSans-62" d="M 3116 1747 
Q 3116 2381 2855 2742 
Q 2594 3103 2138 3103 
Q 1681 3103 1420 2742 
Q 1159 2381 1159 1747 
Q 1159 1113 1420 752 
Q 1681 391 2138 391 
Q 2594 391 2855 752 
Q 3116 1113 3116 1747 
z
M 1159 2969 
Q 1341 3281 1617 3432 
Q 1894 3584 2278 3584 
Q 2916 3584 3314 3078 
Q 3713 2572 3713 1747 
Q 3713 922 3314 415 
Q 2916 -91 2278 -91 
Q 1894 -91 1617 61 
Q 1341 213 1159 525 
L 1159 0 
L 581 0 
L 581 4863 
L 1159 4863 
L 1159 2969 
z
" transform="scale(0.015625)"/>
      <path id="DejaVuSans-6f" d="M 1959 3097 
Q 1497 3097 1228 2736 
Q 959 2375 959 1747 
Q 959 1119 1226 758 
Q 1494 397 1959 397 
Q 2419 397 2687 759 
Q 2956 1122 2956 1747 
Q 2956 2369 2687 2733 
Q 2419 3097 1959 3097 
z
M 1959 3584 
Q 2709 3584 3137 3096 
Q 3566 2609 3566 1747 
Q 3566 888 3137 398 
Q 2709 -91 1959 -91 
Q 1206 -91 779 398 
Q 353 888 353 1747 
Q 353 2609 779 3096 
Q 1206 3584 1959 3584 
z
" transform="scale(0.015625)"/>
     </defs>
     <use xlink:href="#DejaVuSans-42"/>
     <use xlink:href="#DejaVuSans-65" x="68.603516"/>
     <use xlink:href="#DejaVuSans-74" x="130.126953"/>
     <use xlink:href="#DejaVuSans-61" x="169.335938"/>
     <use xlink:href="#DejaVuSans-20" x="230.615234"/>
     <use xlink:href="#DejaVuSans-44" x="262.402344"/>
     <use xlink:href="#DejaVuSans-69" x="339.404297"/>
     <use xlink:href="#DejaVuSans-73" x="367.1875"/>
     <use xlink:href="#DejaVuSans-74" x="419.287109"/>
     <use xlink:href="#DejaVuSans-72" x="458.496094"/>
     <use xlink:href="#DejaVuSans-69" x="499.609375"/>
     <use xlink:href="#DejaVuSans-62" x="527.392578"/>
     <use xlink:href="#DejaVuSans-75" x="590.869141"/>
     <use xlink:href="#DejaVuSans-74" x="654.248047"/>
     <use xlink:href="#DejaVuSans-69" x="693.457031"/>
     <use xlink:href="#DejaVuSans-6f" x="721.240234"/>
     <use xlink:href="#DejaVuSans-6e" x="782.421875"/>
    </g>
   </g>
   <g id="legend_1">
    <g id="patch_7">
     <path d="M 171.863281 148.115437 
L 300.456719 148.115437 
Q 302.656719 148.115437 302.656719 145.915437 
L 302.656719 49.172 
Q 302.656719 46.972 300.456719 46.972 
L 171.863281 46.972 
Q 169.663281 46.972 169.663281 49.172 
L 169.663281 145.915437 
Q 169.663281 148.115437 171.863281 148.115437 
z
" style="fill: #ffffff; opacity: 0.8; stroke: #cccccc; stroke-linejoin: miter"/>
    </g>
    <g id="text_19">
     <!-- Distribution -->
     <g style="fill: #262626" transform="translate(201.1575 60.490125)scale(0.12 -0.12)">
      <use xlink:href="#DejaVuSans-44"/>
      <use xlink:href="#DejaVuSans-69" x="77.001953"/>
      <use xlink:href="#DejaVuSans-73" x="104.785156"/>
      <use xlink:href="#DejaVuSans-74" x="156.884766"/>
      <use xlink:href="#DejaVuSans-72" x="196.09375"/>
      <use xlink:href="#DejaVuSans-69" x="237.207031"/>
      <use xlink:href="#DejaVuSans-62" x="264.990234"/>
      <use xlink:href="#DejaVuSans-75" x="328.466797"/>
      <use xlink:href="#DejaVuSans-74" x="391.845703"/>
      <use xlink:href="#DejaVuSans-69" x="431.054688"/>
      <use xlink:href="#DejaVuSans-6f" x="458.837891"/>
      <use xlink:href="#DejaVuSans-6e" x="520.019531"/>
     </g>
    </g>
    <g id="line2d_21">
     <path d="M 174.063281 72.994031 
L 185.063281 72.994031 
L 196.063281 72.994031 
" style="fill: none; stroke: #4c72b0; stroke-width: 1.5; stroke-linecap: round"/>
    </g>
    <g id="text_20">
     <!-- pp.Beta(0.5, 0.5) -->
     <g style="fill: #262626" transform="translate(204.863281 76.844031)scale(0.11 -0.11)">
      <defs>
       <path id="DejaVuSans-70" d="M 1159 525 
L 1159 -1331 
L 581 -1331 
L 581 3500 
L 1159 3500 
L 1159 2969 
Q 1341 3281 1617 3432 
Q 1894 3584 2278 3584 
Q 2916 3584 3314 3078 
Q 3713 2572 3713 1747 
Q 3713 922 3314 415 
Q 2916 -91 2278 -91 
Q 1894 -91 1617 61 
Q 1341 213 1159 525 
z
M 3116 1747 
Q 3116 2381 2855 2742 
Q 2594 3103 2138 3103 
Q 1681 3103 1420 2742 
Q 1159 2381 1159 1747 
Q 1159 1113 1420 752 
Q 1681 391 2138 391 
Q 2594 391 2855 752 
Q 3116 1113 3116 1747 
z
" transform="scale(0.015625)"/>
       <path id="DejaVuSans-28" d="M 1984 4856 
Q 1566 4138 1362 3434 
Q 1159 2731 1159 2009 
Q 1159 1288 1364 580 
Q 1569 -128 1984 -844 
L 1484 -844 
Q 1016 -109 783 600 
Q 550 1309 550 2009 
Q 550 2706 781 3412 
Q 1013 4119 1484 4856 
L 1984 4856 
z
" transform="scale(0.015625)"/>
       <path id="DejaVuSans-2c" d="M 750 794 
L 1409 794 
L 1409 256 
L 897 -744 
L 494 -744 
L 750 256 
L 750 794 
z
" transform="scale(0.015625)"/>
       <path id="DejaVuSans-29" d="M 513 4856 
L 1013 4856 
Q 1481 4119 1714 3412 
Q 1947 2706 1947 2009 
Q 1947 1309 1714 600 
Q 1481 -109 1013 -844 
L 513 -844 
Q 928 -128 1133 580 
Q 1338 1288 1338 2009 
Q 1338 2731 1133 3434 
Q 928 4138 513 4856 
z
" transform="scale(0.015625)"/>
      </defs>
      <use xlink:href="#DejaVuSans-70"/>
      <use xlink:href="#DejaVuSans-70" x="63.476562"/>
      <use xlink:href="#DejaVuSans-2e" x="126.953125"/>
      <use xlink:href="#DejaVuSans-42" x="158.740234"/>
      <use xlink:href="#DejaVuSans-65" x="227.34375"/>
      <use xlink:href="#DejaVuSans-74" x="288.867188"/>
      <use xlink:href="#DejaVuSans-61" x="328.076172"/>
      <use xlink:href="#DejaVuSans-28" x="389.355469"/>
      <use xlink:href="#DejaVuSans-30" x="428.369141"/>
      <use xlink:href="#DejaVuSans-2e" x="491.992188"/>
      <use xlink:href="#DejaVuSans-35" x="523.779297"/>
      <use xlink:href="#DejaVuSans-2c" x="587.402344"/>
      <use xlink:href="#DejaVuSans-20" x="619.189453"/>
      <use xlink:href="#DejaVuSans-30" x="650.976562"/>
      <use xlink:href="#DejaVuSans-2e" x="714.599609"/>
      <use xlink:href="#DejaVuSans-35" x="746.386719"/>
      <use xlink:href="#DejaVuSans-29" x="810.009766"/>
     </g>
    </g>
    <g id="line2d_22">
     <path d="M 174.063281 89.139969 
L 185.063281 89.139969 
L 196.063281 89.139969 
" style="fill: none; stroke: #dd8452; stroke-width: 1.5; stroke-linecap: round"/>
    </g>
    <g id="text_21">
     <!-- pp.Beta(5.0, 1.0) -->
     <g style="fill: #262626" transform="translate(204.863281 92.989969)scale(0.11 -0.11)">
      <use xlink:href="#DejaVuSans-70"/>
      <use xlink:href="#DejaVuSans-70" x="63.476562"/>
      <use xlink:href="#DejaVuSans-2e" x="126.953125"/>
      <use xlink:href="#DejaVuSans-42" x="158.740234"/>
      <use xlink:href="#DejaVuSans-65" x="227.34375"/>
      <use xlink:href="#DejaVuSans-74" x="288.867188"/>
      <use xlink:href="#DejaVuSans-61" x="328.076172"/>
      <use xlink:href="#DejaVuSans-28" x="389.355469"/>
      <use xlink:href="#DejaVuSans-35" x="428.369141"/>
      <use xlink:href="#DejaVuSans-2e" x="491.992188"/>
      <use xlink:href="#DejaVuSans-30" x="523.779297"/>
      <use xlink:href="#DejaVuSans-2c" x="587.402344"/>
      <use xlink:href="#DejaVuSans-20" x="619.189453"/>
      <use xlink:href="#DejaVuSans-31" x="650.976562"/>
      <use xlink:href="#DejaVuSans-2e" x="714.599609"/>
      <use xlink:href="#DejaVuSans-30" x="746.386719"/>
      <use xlink:href="#DejaVuSans-29" x="810.009766"/>
     </g>
    </g>
    <g id="line2d_23">
     <path d="M 174.063281 105.285906 
L 185.063281 105.285906 
L 196.063281 105.285906 
" style="fill: none; stroke: #55a868; stroke-width: 1.5; stroke-linecap: round"/>
    </g>
    <g id="text_22">
     <!-- pp.Beta(1.0, 3.0) -->
     <g style="fill: #262626" transform="translate(204.863281 109.135906)scale(0.11 -0.11)">
      <use xlink:href="#DejaVuSans-70"/>
      <use xlink:href="#DejaVuSans-70" x="63.476562"/>
      <use xlink:href="#DejaVuSans-2e" x="126.953125"/>
      <use xlink:href="#DejaVuSans-42" x="158.740234"/>
      <use xlink:href="#DejaVuSans-65" x="227.34375"/>
      <use xlink:href="#DejaVuSans-74" x="288.867188"/>
      <use xlink:href="#DejaVuSans-61" x="328.076172"/>
      <use xlink:href="#DejaVuSans-28" x="389.355469"/>
      <use xlink:href="#DejaVuSans-31" x="428.369141"/>
      <use xlink:href="#DejaVuSans-2e" x="491.992188"/>
      <use xlink:href="#DejaVuSans-30" x="523.779297"/>
      <use xlink:href="#DejaVuSans-2c" x="587.402344"/>
      <use xlink:href="#DejaVuSans-20" x="619.189453"/>
      <use xlink:href="#DejaVuSans-33" x="650.976562"/>
      <use xlink:href="#DejaVuSans-2e" x="714.599609"/>
      <use xlink:href="#DejaVuSans-30" x="746.386719"/>
      <use xlink:href="#DejaVuSans-29" x="810.009766"/>
     </g>
    </g>
    <g id="line2d_24">
     <path d="M 174.063281 121.431844 
L 185.063281 121.431844 
L 196.063281 121.431844 
" style="fill: none; stroke: #c44e52; stroke-width: 1.5; stroke-linecap: round"/>
    </g>
    <g id="text_23">
     <!-- pp.Beta(2.0, 2.0) -->
     <g style="fill: #262626" transform="translate(204.863281 125.281844)scale(0.11 -0.11)">
      <use xlink:href="#DejaVuSans-70"/>
      <use xlink:href="#DejaVuSans-70" x="63.476562"/>
      <use xlink:href="#DejaVuSans-2e" x="126.953125"/>
      <use xlink:href="#DejaVuSans-42" x="158.740234"/>
      <use xlink:href="#DejaVuSans-65" x="227.34375"/>
      <use xlink:href="#DejaVuSans-74" x="288.867188"/>
      <use xlink:href="#DejaVuSans-61" x="328.076172"/>
      <use xlink:href="#DejaVuSans-28" x="389.355469"/>
      <use xlink:href="#DejaVuSans-32" x="428.369141"/>
      <use xlink:href="#DejaVuSans-2e" x="491.992188"/>
      <use xlink:href="#DejaVuSans-30" x="523.779297"/>
      <use xlink:href="#DejaVuSans-2c" x="587.402344"/>
      <use xlink:href="#DejaVuSans-20" x="619.189453"/>
      <use xlink:href="#DejaVuSans-32" x="650.976562"/>
      <use xlink:href="#DejaVuSans-2e" x="714.599609"/>
      <use xlink:href="#DejaVuSans-30" x="746.386719"/>
      <use xlink:href="#DejaVuSans-29" x="810.009766"/>
     </g>
    </g>
    <g id="line2d_25">
     <path d="M 174.063281 137.577781 
L 185.063281 137.577781 
L 196.063281 137.577781 
" style="fill: none; stroke: #8172b3; stroke-width: 1.5; stroke-linecap: round"/>
    </g>
    <g id="text_24">
     <!-- pp.Beta(2.0, 5.0) -->
     <g style="fill: #262626" transform="translate(204.863281 141.427781)scale(0.11 -0.11)">
      <use xlink:href="#DejaVuSans-70"/>
      <use xlink:href="#DejaVuSans-70" x="63.476562"/>
      <use xlink:href="#DejaVuSans-2e" x="126.953125"/>
      <use xlink:href="#DejaVuSans-42" x="158.740234"/>
      <use xlink:href="#DejaVuSans-65" x="227.34375"/>
      <use xlink:href="#DejaVuSans-74" x="288.867188"/>
      <use xlink:href="#DejaVuSans-61" x="328.076172"/>
      <use xlink:href="#DejaVuSans-28" x="389.355469"/>
      <use xlink:href="#DejaVuSans-32" x="428.369141"/>
      <use xlink:href="#DejaVuSans-2e" x="491.992188"/>
      <use xlink:href="#DejaVuSans-30" x="523.779297"/>
      <use xlink:href="#DejaVuSans-2c" x="587.402344"/>
      <use xlink:href="#DejaVuSans-20" x="619.189453"/>
      <use xlink:href="#DejaVuSans-35" x="650.976562"/>
      <use xlink:href="#DejaVuSans-2e" x="714.599609"/>
      <use xlink:href="#DejaVuSans-30" x="746.386719"/>
      <use xlink:href="#DejaVuSans-29" x="810.009766"/>
     </g>
    </g>
   </g>
  </g>
 </g>
 <defs>
  <clipPath id="pbe76ba14fb">
   <rect x="57.6" y="41.472" width="357.12" height="266.112"/>
  </clipPath>
 </defs>
</svg>
