<?xml version="1.0" encoding="utf-8" standalone="no"?>
<!DOCTYPE svg PUBLIC "-//W3C//DTD SVG 1.1//EN"
  "http://www.w3.org/Graphics/SVG/1.1/DTD/svg11.dtd">
<svg xmlns:xlink="http://www.w3.org/1999/xlink" width="460.8pt" height="345.6pt" viewBox="0 0 460.8 345.6" xmlns="http://www.w3.org/2000/svg" version="1.1">
 <metadata>
  <rdf:RDF xmlns:dc="http://purl.org/dc/elements/1.1/" xmlns:cc="http://creativecommons.org/ns#" xmlns:rdf="http://www.w3.org/1999/02/22-rdf-syntax-ns#">
   <cc:Work>
    <dc:type rdf:resource="http://purl.org/dc/dcmitype/StillImage"/>
    <dc:date>2022-05-25T19:57:52.108337</dc:date>
    <dc:format>image/svg+xml</dc:format>
    <dc:creator>
     <cc:Agent>
      <dc:title>Matplotlib v3.5.2, https://matplotlib.org/</dc:title>
     </cc:Agent>
    </dc:creator>
   </cc:Work>
  </rdf:RDF>
 </metadata>
 <defs>
  <style type="text/css">*{stroke-linejoin: round; stroke-linecap: butt}</style>
 </defs>
 <g id="figure_1">
  <g id="patch_1">
   <path d="M 0 345.6 
L 460.8 345.6 
L 460.8 0 
L 0 0 
z
" style="fill: #ffffff"/>
  </g>
  <g id="axes_1">
   <g id="patch_2">
    <path d="M 57.6 307.584 
L 414.72 307.584 
L 414.72 41.472 
L 57.6 41.472 
z
" style="fill: #ffffff"/>
   </g>
   <g id="matplotlib.axis_1">
    <g id="xtick_1">
     <g id="line2d_1">
      <path d="M 93.312 307.584 
L 93.312 41.472 
" clip-path="url(#p4c17d978fb)" style="fill: none; stroke: #cccccc; stroke-linecap: round"/>
     </g>
     <g id="text_1">
      <!-- −4 -->
      <g style="fill: #262626" transform="translate(85.203797 325.442281)scale(0.11 -0.11)">
       <defs>
        <path id="DejaVuSans-2212" d="M 678 2272 
L 4684 2272 
L 4684 1741 
L 678 1741 
L 678 2272 
z
" transform="scale(0.015625)"/>
        <path id="DejaVuSans-34" d="M 2419 4116 
L 825 1625 
L 2419 1625 
L 2419 4116 
z
M 2253 4666 
L 3047 4666 
L 3047 1625 
L 3713 1625 
L 3713 1100 
L 3047 1100 
L 3047 0 
L 2419 0 
L 2419 1100 
L 313 1100 
L 313 1709 
L 2253 4666 
z
" transform="scale(0.015625)"/>
       </defs>
       <use xlink:href="#DejaVuSans-2212"/>
       <use xlink:href="#DejaVuSans-34" x="83.789062"/>
      </g>
     </g>
    </g>
    <g id="xtick_2">
     <g id="line2d_2">
      <path d="M 164.736 307.584 
L 164.736 41.472 
" clip-path="url(#p4c17d978fb)" style="fill: none; stroke: #cccccc; stroke-linecap: round"/>
     </g>
     <g id="text_2">
      <!-- −2 -->
      <g style="fill: #262626" transform="translate(156.627797 325.442281)scale(0.11 -0.11)">
       <defs>
        <path id="DejaVuSans-32" d="M 1228 531 
L 3431 531 
L 3431 0 
L 469 0 
L 469 531 
Q 828 903 1448 1529 
Q 2069 2156 2228 2338 
Q 2531 2678 2651 2914 
Q 2772 3150 2772 3378 
Q 2772 3750 2511 3984 
Q 2250 4219 1831 4219 
Q 1534 4219 1204 4116 
Q 875 4013 500 3803 
L 500 4441 
Q 881 4594 1212 4672 
Q 1544 4750 1819 4750 
Q 2544 4750 2975 4387 
Q 3406 4025 3406 3419 
Q 3406 3131 3298 2873 
Q 3191 2616 2906 2266 
Q 2828 2175 2409 1742 
Q 1991 1309 1228 531 
z
" transform="scale(0.015625)"/>
       </defs>
       <use xlink:href="#DejaVuSans-2212"/>
       <use xlink:href="#DejaVuSans-32" x="83.789062"/>
      </g>
     </g>
    </g>
    <g id="xtick_3">
     <g id="line2d_3">
      <path d="M 236.16 307.584 
L 236.16 41.472 
" clip-path="url(#p4c17d978fb)" style="fill: none; stroke: #cccccc; stroke-linecap: round"/>
     </g>
     <g id="text_3">
      <!-- 0 -->
      <g style="fill: #262626" transform="translate(232.660625 325.442281)scale(0.11 -0.11)">
       <defs>
        <path id="DejaVuSans-30" d="M 2034 4250 
Q 1547 4250 1301 3770 
Q 1056 3291 1056 2328 
Q 1056 1369 1301 889 
Q 1547 409 2034 409 
Q 2525 409 2770 889 
Q 3016 1369 3016 2328 
Q 3016 3291 2770 3770 
Q 2525 4250 2034 4250 
z
M 2034 4750 
Q 2819 4750 3233 4129 
Q 3647 3509 3647 2328 
Q 3647 1150 3233 529 
Q 2819 -91 2034 -91 
Q 1250 -91 836 529 
Q 422 1150 422 2328 
Q 422 3509 836 4129 
Q 1250 4750 2034 4750 
z
" transform="scale(0.015625)"/>
       </defs>
       <use xlink:href="#DejaVuSans-30"/>
      </g>
     </g>
    </g>
    <g id="xtick_4">
     <g id="line2d_4">
      <path d="M 307.584 307.584 
L 307.584 41.472 
" clip-path="url(#p4c17d978fb)" style="fill: none; stroke: #cccccc; stroke-linecap: round"/>
     </g>
     <g id="text_4">
      <!-- 2 -->
      <g style="fill: #262626" transform="translate(304.084625 325.442281)scale(0.11 -0.11)">
       <use xlink:href="#DejaVuSans-32"/>
      </g>
     </g>
    </g>
    <g id="xtick_5">
     <g id="line2d_5">
      <path d="M 379.008 307.584 
L 379.008 41.472 
" clip-path="url(#p4c17d978fb)" style="fill: none; stroke: #cccccc; stroke-linecap: round"/>
     </g>
     <g id="text_5">
      <!-- 4 -->
      <g style="fill: #262626" transform="translate(375.508625 325.442281)scale(0.11 -0.11)">
       <use xlink:href="#DejaVuSans-34"/>
      </g>
     </g>
    </g>
    <g id="text_6">
     <!-- Value -->
     <g style="fill: #262626" transform="translate(219.6825 340.848062)scale(0.12 -0.12)">
      <defs>
       <path id="DejaVuSans-56" d="M 1831 0 
L 50 4666 
L 709 4666 
L 2188 738 
L 3669 4666 
L 4325 4666 
L 2547 0 
L 1831 0 
z
" transform="scale(0.015625)"/>
       <path id="DejaVuSans-61" d="M 2194 1759 
Q 1497 1759 1228 1600 
Q 959 1441 959 1056 
Q 959 750 1161 570 
Q 1363 391 1709 391 
Q 2188 391 2477 730 
Q 2766 1069 2766 1631 
L 2766 1759 
L 2194 1759 
z
M 3341 1997 
L 3341 0 
L 2766 0 
L 2766 531 
Q 2569 213 2275 61 
Q 1981 -91 1556 -91 
Q 1019 -91 701 211 
Q 384 513 384 1019 
Q 384 1609 779 1909 
Q 1175 2209 1959 2209 
L 2766 2209 
L 2766 2266 
Q 2766 2663 2505 2880 
Q 2244 3097 1772 3097 
Q 1472 3097 1187 3025 
Q 903 2953 641 2809 
L 641 3341 
Q 956 3463 1253 3523 
Q 1550 3584 1831 3584 
Q 2591 3584 2966 3190 
Q 3341 2797 3341 1997 
z
" transform="scale(0.015625)"/>
       <path id="DejaVuSans-6c" d="M 603 4863 
L 1178 4863 
L 1178 0 
L 603 0 
L 603 4863 
z
" transform="scale(0.015625)"/>
       <path id="DejaVuSans-75" d="M 544 1381 
L 544 3500 
L 1119 3500 
L 1119 1403 
Q 1119 906 1312 657 
Q 1506 409 1894 409 
Q 2359 409 2629 706 
Q 2900 1003 2900 1516 
L 2900 3500 
L 3475 3500 
L 3475 0 
L 2900 0 
L 2900 538 
Q 2691 219 2414 64 
Q 2138 -91 1772 -91 
Q 1169 -91 856 284 
Q 544 659 544 1381 
z
M 1991 3584 
L 1991 3584 
z
" transform="scale(0.015625)"/>
       <path id="DejaVuSans-65" d="M 3597 1894 
L 3597 1613 
L 953 1613 
Q 991 1019 1311 708 
Q 1631 397 2203 397 
Q 2534 397 2845 478 
Q 3156 559 3463 722 
L 3463 178 
Q 3153 47 2828 -22 
Q 2503 -91 2169 -91 
Q 1331 -91 842 396 
Q 353 884 353 1716 
Q 353 2575 817 3079 
Q 1281 3584 2069 3584 
Q 2775 3584 3186 3129 
Q 3597 2675 3597 1894 
z
M 3022 2063 
Q 3016 2534 2758 2815 
Q 2500 3097 2075 3097 
Q 1594 3097 1305 2825 
Q 1016 2553 972 2059 
L 3022 2063 
z
" transform="scale(0.015625)"/>
      </defs>
      <use xlink:href="#DejaVuSans-56"/>
      <use xlink:href="#DejaVuSans-61" x="60.658203"/>
      <use xlink:href="#DejaVuSans-6c" x="121.9375"/>
      <use xlink:href="#DejaVuSans-75" x="149.720703"/>
      <use xlink:href="#DejaVuSans-65" x="213.099609"/>
     </g>
    </g>
   </g>
   <g id="matplotlib.axis_2">
    <g id="ytick_1">
     <g id="line2d_6">
      <path d="M 57.6 307.584 
L 414.72 307.584 
" clip-path="url(#p4c17d978fb)" style="fill: none; stroke: #cccccc; stroke-linecap: round"/>
     </g>
     <g id="text_7">
      <!-- 0.00 -->
      <g style="fill: #262626" transform="translate(23.607813 311.763141)scale(0.11 -0.11)">
       <defs>
        <path id="DejaVuSans-2e" d="M 684 794 
L 1344 794 
L 1344 0 
L 684 0 
L 684 794 
z
" transform="scale(0.015625)"/>
       </defs>
       <use xlink:href="#DejaVuSans-30"/>
       <use xlink:href="#DejaVuSans-2e" x="63.623047"/>
       <use xlink:href="#DejaVuSans-30" x="95.410156"/>
       <use xlink:href="#DejaVuSans-30" x="159.033203"/>
      </g>
     </g>
    </g>
    <g id="ytick_2">
     <g id="line2d_7">
      <path d="M 57.6 276.52137 
L 414.72 276.52137 
" clip-path="url(#p4c17d978fb)" style="fill: none; stroke: #cccccc; stroke-linecap: round"/>
     </g>
     <g id="text_8">
      <!-- 0.05 -->
      <g style="fill: #262626" transform="translate(23.607813 280.70051)scale(0.11 -0.11)">
       <defs>
        <path id="DejaVuSans-35" d="M 691 4666 
L 3169 4666 
L 3169 4134 
L 1269 4134 
L 1269 2991 
Q 1406 3038 1543 3061 
Q 1681 3084 1819 3084 
Q 2600 3084 3056 2656 
Q 3513 2228 3513 1497 
Q 3513 744 3044 326 
Q 2575 -91 1722 -91 
Q 1428 -91 1123 -41 
Q 819 9 494 109 
L 494 744 
Q 775 591 1075 516 
Q 1375 441 1709 441 
Q 2250 441 2565 725 
Q 2881 1009 2881 1497 
Q 2881 1984 2565 2268 
Q 2250 2553 1709 2553 
Q 1456 2553 1204 2497 
Q 953 2441 691 2322 
L 691 4666 
z
" transform="scale(0.015625)"/>
       </defs>
       <use xlink:href="#DejaVuSans-30"/>
       <use xlink:href="#DejaVuSans-2e" x="63.623047"/>
       <use xlink:href="#DejaVuSans-30" x="95.410156"/>
       <use xlink:href="#DejaVuSans-35" x="159.033203"/>
      </g>
     </g>
    </g>
    <g id="ytick_3">
     <g id="line2d_8">
      <path d="M 57.6 245.45874 
L 414.72 245.45874 
" clip-path="url(#p4c17d978fb)" style="fill: none; stroke: #cccccc; stroke-linecap: round"/>
     </g>
     <g id="text_9">
      <!-- 0.10 -->
      <g style="fill: #262626" transform="translate(23.607813 249.63788)scale(0.11 -0.11)">
       <defs>
        <path id="DejaVuSans-31" d="M 794 531 
L 1825 531 
L 1825 4091 
L 703 3866 
L 703 4441 
L 1819 4666 
L 2450 4666 
L 2450 531 
L 3481 531 
L 3481 0 
L 794 0 
L 794 531 
z
" transform="scale(0.015625)"/>
       </defs>
       <use xlink:href="#DejaVuSans-30"/>
       <use xlink:href="#DejaVuSans-2e" x="63.623047"/>
       <use xlink:href="#DejaVuSans-31" x="95.410156"/>
       <use xlink:href="#DejaVuSans-30" x="159.033203"/>
      </g>
     </g>
    </g>
    <g id="ytick_4">
     <g id="line2d_9">
      <path d="M 57.6 214.396109 
L 414.72 214.396109 
" clip-path="url(#p4c17d978fb)" style="fill: none; stroke: #cccccc; stroke-linecap: round"/>
     </g>
     <g id="text_10">
      <!-- 0.15 -->
      <g style="fill: #262626" transform="translate(23.607813 218.57525)scale(0.11 -0.11)">
       <use xlink:href="#DejaVuSans-30"/>
       <use xlink:href="#DejaVuSans-2e" x="63.623047"/>
       <use xlink:href="#DejaVuSans-31" x="95.410156"/>
       <use xlink:href="#DejaVuSans-35" x="159.033203"/>
      </g>
     </g>
    </g>
    <g id="ytick_5">
     <g id="line2d_10">
      <path d="M 57.6 183.333479 
L 414.72 183.333479 
" clip-path="url(#p4c17d978fb)" style="fill: none; stroke: #cccccc; stroke-linecap: round"/>
     </g>
     <g id="text_11">
      <!-- 0.20 -->
      <g style="fill: #262626" transform="translate(23.607813 187.51262)scale(0.11 -0.11)">
       <use xlink:href="#DejaVuSans-30"/>
       <use xlink:href="#DejaVuSans-2e" x="63.623047"/>
       <use xlink:href="#DejaVuSans-32" x="95.410156"/>
       <use xlink:href="#DejaVuSans-30" x="159.033203"/>
      </g>
     </g>
    </g>
    <g id="ytick_6">
     <g id="line2d_11">
      <path d="M 57.6 152.270849 
L 414.72 152.270849 
" clip-path="url(#p4c17d978fb)" style="fill: none; stroke: #cccccc; stroke-linecap: round"/>
     </g>
     <g id="text_12">
      <!-- 0.25 -->
      <g style="fill: #262626" transform="translate(23.607813 156.44999)scale(0.11 -0.11)">
       <use xlink:href="#DejaVuSans-30"/>
       <use xlink:href="#DejaVuSans-2e" x="63.623047"/>
       <use xlink:href="#DejaVuSans-32" x="95.410156"/>
       <use xlink:href="#DejaVuSans-35" x="159.033203"/>
      </g>
     </g>
    </g>
    <g id="ytick_7">
     <g id="line2d_12">
      <path d="M 57.6 121.208219 
L 414.72 121.208219 
" clip-path="url(#p4c17d978fb)" style="fill: none; stroke: #cccccc; stroke-linecap: round"/>
     </g>
     <g id="text_13">
      <!-- 0.30 -->
      <g style="fill: #262626" transform="translate(23.607813 125.387359)scale(0.11 -0.11)">
       <defs>
        <path id="DejaVuSans-33" d="M 2597 2516 
Q 3050 2419 3304 2112 
Q 3559 1806 3559 1356 
Q 3559 666 3084 287 
Q 2609 -91 1734 -91 
Q 1441 -91 1130 -33 
Q 819 25 488 141 
L 488 750 
Q 750 597 1062 519 
Q 1375 441 1716 441 
Q 2309 441 2620 675 
Q 2931 909 2931 1356 
Q 2931 1769 2642 2001 
Q 2353 2234 1838 2234 
L 1294 2234 
L 1294 2753 
L 1863 2753 
Q 2328 2753 2575 2939 
Q 2822 3125 2822 3475 
Q 2822 3834 2567 4026 
Q 2313 4219 1838 4219 
Q 1578 4219 1281 4162 
Q 984 4106 628 3988 
L 628 4550 
Q 988 4650 1302 4700 
Q 1616 4750 1894 4750 
Q 2613 4750 3031 4423 
Q 3450 4097 3450 3541 
Q 3450 3153 3228 2886 
Q 3006 2619 2597 2516 
z
" transform="scale(0.015625)"/>
       </defs>
       <use xlink:href="#DejaVuSans-30"/>
       <use xlink:href="#DejaVuSans-2e" x="63.623047"/>
       <use xlink:href="#DejaVuSans-33" x="95.410156"/>
       <use xlink:href="#DejaVuSans-30" x="159.033203"/>
      </g>
     </g>
    </g>
    <g id="ytick_8">
     <g id="line2d_13">
      <path d="M 57.6 90.145588 
L 414.72 90.145588 
" clip-path="url(#p4c17d978fb)" style="fill: none; stroke: #cccccc; stroke-linecap: round"/>
     </g>
     <g id="text_14">
      <!-- 0.35 -->
      <g style="fill: #262626" transform="translate(23.607813 94.324729)scale(0.11 -0.11)">
       <use xlink:href="#DejaVuSans-30"/>
       <use xlink:href="#DejaVuSans-2e" x="63.623047"/>
       <use xlink:href="#DejaVuSans-33" x="95.410156"/>
       <use xlink:href="#DejaVuSans-35" x="159.033203"/>
      </g>
     </g>
    </g>
    <g id="ytick_9">
     <g id="line2d_14">
      <path d="M 57.6 59.082958 
L 414.72 59.082958 
" clip-path="url(#p4c17d978fb)" style="fill: none; stroke: #cccccc; stroke-linecap: round"/>
     </g>
     <g id="text_15">
      <!-- 0.40 -->
      <g style="fill: #262626" transform="translate(23.607813 63.262099)scale(0.11 -0.11)">
       <use xlink:href="#DejaVuSans-30"/>
       <use xlink:href="#DejaVuSans-2e" x="63.623047"/>
       <use xlink:href="#DejaVuSans-34" x="95.410156"/>
       <use xlink:href="#DejaVuSans-30" x="159.033203"/>
      </g>
     </g>
    </g>
    <g id="text_16">
     <!-- Density -->
     <g style="fill: #262626" transform="translate(17.112187 197.338313)rotate(-90)scale(0.12 -0.12)">
      <defs>
       <path id="DejaVuSans-44" d="M 1259 4147 
L 1259 519 
L 2022 519 
Q 2988 519 3436 956 
Q 3884 1394 3884 2338 
Q 3884 3275 3436 3711 
Q 2988 4147 2022 4147 
L 1259 4147 
z
M 628 4666 
L 1925 4666 
Q 3281 4666 3915 4102 
Q 4550 3538 4550 2338 
Q 4550 1131 3912 565 
Q 3275 0 1925 0 
L 628 0 
L 628 4666 
z
" transform="scale(0.015625)"/>
       <path id="DejaVuSans-6e" d="M 3513 2113 
L 3513 0 
L 2938 0 
L 2938 2094 
Q 2938 2591 2744 2837 
Q 2550 3084 2163 3084 
Q 1697 3084 1428 2787 
Q 1159 2491 1159 1978 
L 1159 0 
L 581 0 
L 581 3500 
L 1159 3500 
L 1159 2956 
Q 1366 3272 1645 3428 
Q 1925 3584 2291 3584 
Q 2894 3584 3203 3211 
Q 3513 2838 3513 2113 
z
" transform="scale(0.015625)"/>
       <path id="DejaVuSans-73" d="M 2834 3397 
L 2834 2853 
Q 2591 2978 2328 3040 
Q 2066 3103 1784 3103 
Q 1356 3103 1142 2972 
Q 928 2841 928 2578 
Q 928 2378 1081 2264 
Q 1234 2150 1697 2047 
L 1894 2003 
Q 2506 1872 2764 1633 
Q 3022 1394 3022 966 
Q 3022 478 2636 193 
Q 2250 -91 1575 -91 
Q 1294 -91 989 -36 
Q 684 19 347 128 
L 347 722 
Q 666 556 975 473 
Q 1284 391 1588 391 
Q 1994 391 2212 530 
Q 2431 669 2431 922 
Q 2431 1156 2273 1281 
Q 2116 1406 1581 1522 
L 1381 1569 
Q 847 1681 609 1914 
Q 372 2147 372 2553 
Q 372 3047 722 3315 
Q 1072 3584 1716 3584 
Q 2034 3584 2315 3537 
Q 2597 3491 2834 3397 
z
" transform="scale(0.015625)"/>
       <path id="DejaVuSans-69" d="M 603 3500 
L 1178 3500 
L 1178 0 
L 603 0 
L 603 3500 
z
M 603 4863 
L 1178 4863 
L 1178 4134 
L 603 4134 
L 603 4863 
z
" transform="scale(0.015625)"/>
       <path id="DejaVuSans-74" d="M 1172 4494 
L 1172 3500 
L 2356 3500 
L 2356 3053 
L 1172 3053 
L 1172 1153 
Q 1172 725 1289 603 
Q 1406 481 1766 481 
L 2356 481 
L 2356 0 
L 1766 0 
Q 1100 0 847 248 
Q 594 497 594 1153 
L 594 3053 
L 172 3053 
L 172 3500 
L 594 3500 
L 594 4494 
L 1172 4494 
z
" transform="scale(0.015625)"/>
       <path id="DejaVuSans-79" d="M 2059 -325 
Q 1816 -950 1584 -1140 
Q 1353 -1331 966 -1331 
L 506 -1331 
L 506 -850 
L 844 -850 
Q 1081 -850 1212 -737 
Q 1344 -625 1503 -206 
L 1606 56 
L 191 3500 
L 800 3500 
L 1894 763 
L 2988 3500 
L 3597 3500 
L 2059 -325 
z
" transform="scale(0.015625)"/>
      </defs>
      <use xlink:href="#DejaVuSans-44"/>
      <use xlink:href="#DejaVuSans-65" x="77.001953"/>
      <use xlink:href="#DejaVuSans-6e" x="138.525391"/>
      <use xlink:href="#DejaVuSans-73" x="201.904297"/>
      <use xlink:href="#DejaVuSans-69" x="254.003906"/>
      <use xlink:href="#DejaVuSans-74" x="281.787109"/>
      <use xlink:href="#DejaVuSans-79" x="320.996094"/>
     </g>
    </g>
   </g>
   <g id="PolyCollection_1">
    <path d="M -35711999763.839996 307.584 
L -35711999763.839996 307.584 
L 57.6 307.584 
L 57.6 307.584 
L 64.7424 307.584 
L 64.7424 307.584 
L 71.8848 307.584 
L 71.8848 307.584 
L 79.0272 307.584 
L 79.0272 307.584 
L 86.1696 307.584 
L 86.1696 307.584 
L 93.312 307.584 
L 93.312 307.584 
L 100.4544 307.584 
L 100.4544 307.584 
L 107.5968 307.584 
L 107.5968 307.584 
L 114.7392 307.584 
L 114.7392 307.584 
L 121.8816 307.584 
L 121.8816 307.584 
L 129.024 307.584 
L 129.024 307.584 
L 136.1664 307.584 
L 136.1664 307.584 
L 143.3088 307.584 
L 143.3088 307.584 
L 150.4512 307.584 
L 150.4512 307.584 
L 157.5936 307.584 
L 157.5936 307.584 
L 164.736 307.584 
L 164.736 307.584 
L 171.8784 307.584 
L 171.8784 307.584 
L 179.0208 307.584 
L 179.0208 307.584 
L 186.1632 307.584 
L 186.1632 307.584 
L 193.3056 307.584 
L 193.3056 307.584 
L 200.448 307.584 
L 200.448 307.584 
L 207.5904 307.584 
L 207.5904 307.584 
L 214.7328 307.584 
L 214.7328 307.584 
L 221.8752 307.584 
L 221.8752 307.584 
L 229.0176 307.584 
L 229.0176 307.584 
L 236.16 307.584 
L 236.16 307.584 
L 243.3024 307.584 
L 243.3024 307.584 
L 250.4448 307.584 
L 250.4448 307.584 
L 257.5872 307.584 
L 257.5872 307.584 
L 264.7296 307.584 
L 264.7296 307.584 
L 271.872 307.584 
L 271.872 307.584 
L 279.0144 307.584 
L 279.0144 307.584 
L 286.1568 307.584 
L 286.1568 307.584 
L 293.2992 307.584 
L 293.2992 307.584 
L 300.4416 307.584 
L 300.4416 307.584 
L 307.584 307.584 
L 307.584 307.584 
L 314.7264 307.584 
L 314.7264 307.584 
L 321.8688 307.584 
L 321.8688 307.584 
L 329.0112 307.584 
L 329.0112 307.584 
L 336.1536 307.584 
L 336.1536 307.584 
L 343.296 307.584 
L 343.296 307.584 
L 350.4384 307.584 
L 350.4384 307.584 
L 357.5808 307.584 
L 357.5808 307.584 
L 364.7232 307.584 
L 364.7232 307.584 
L 371.8656 307.584 
L 371.8656 307.584 
L 379.008 307.584 
L 379.008 307.584 
L 386.1504 307.584 
L 386.1504 307.584 
L 393.2928 307.584 
L 393.2928 307.584 
L 400.4352 307.584 
L 400.4352 307.584 
L 407.5776 307.584 
L 407.5776 307.584 
L 414.72 307.584 
L 414.72 307.584 
L 35712000236.160004 307.584 
L 35712000236.160004 307.584 
L 35712000236.160004 307.584 
L 35712000236.160004 307.584 
L 35712000236.160004 307.584 
L 414.72 307.584 
L 414.72 286.647787 
L 407.5776 286.647787 
L 407.5776 278.851067 
L 400.4352 278.851067 
L 400.4352 268.817837 
L 393.2928 268.817837 
L 393.2928 262.418936 
L 386.1504 262.418936 
L 386.1504 250.584074 
L 379.008 250.584074 
L 379.008 237.475644 
L 371.8656 237.475644 
L 371.8656 221.354138 
L 364.7232 221.354138 
L 364.7232 205.512197 
L 357.5808 205.512197 
L 357.5808 193.584147 
L 350.4384 193.584147 
L 350.4384 179.512776 
L 343.296 179.512776 
L 343.296 164.602713 
L 336.1536 164.602713 
L 336.1536 151.152594 
L 329.0112 151.152594 
L 329.0112 142.920997 
L 321.8688 142.920997 
L 321.8688 140.498112 
L 314.7264 140.498112 
L 314.7264 132.856705 
L 307.584 132.856705 
L 307.584 130.713384 
L 300.4416 130.713384 
L 300.4416 134.627275 
L 293.2992 134.627275 
L 293.2992 142.299745 
L 286.1568 142.299745 
L 286.1568 154.227795 
L 279.0144 154.227795 
L 279.0144 168.019602 
L 271.872 168.019602 
L 271.872 177.773268 
L 264.7296 177.773268 
L 264.7296 191.409763 
L 257.5872 191.409763 
L 257.5872 206.568327 
L 250.4448 206.568327 
L 250.4448 223.435335 
L 243.3024 223.435335 
L 243.3024 237.568831 
L 236.16 237.568831 
L 236.16 249.496881 
L 229.0176 249.496881 
L 229.0176 260.089238 
L 221.8752 260.089238 
L 221.8752 269.43909 
L 214.7328 269.43909 
L 214.7328 278.540441 
L 207.5904 278.540441 
L 207.5904 285.995472 
L 200.448 285.995472 
L 200.448 292.11481 
L 193.3056 292.11481 
L 193.3056 295.252136 
L 186.1632 295.252136 
L 186.1632 299.91153 
L 179.0208 299.91153 
L 179.0208 302.458666 
L 171.8784 302.458666 
L 171.8784 303.732234 
L 164.736 303.732234 
L 164.736 304.788363 
L 157.5936 304.788363 
L 157.5936 305.751305 
L 150.4512 305.751305 
L 150.4512 306.217244 
L 143.3088 306.217244 
L 143.3088 306.776372 
L 136.1664 306.776372 
L 136.1664 307.149123 
L 129.024 307.149123 
L 129.024 307.397624 
L 121.8816 307.397624 
L 121.8816 307.335499 
L 114.7392 307.335499 
L 114.7392 307.490812 
L 107.5968 307.490812 
L 107.5968 307.552937 
L 100.4544 307.552937 
L 100.4544 307.552937 
L 93.312 307.552937 
L 93.312 307.552937 
L 86.1696 307.552937 
L 86.1696 307.552937 
L 79.0272 307.552937 
L 79.0272 307.584 
L 71.8848 307.584 
L 71.8848 307.584 
L 64.7424 307.584 
L 64.7424 307.584 
L 57.6 307.584 
L 57.6 307.584 
L -35711999763.839996 307.584 
z
" clip-path="url(#p4c17d978fb)" style="fill: #55a868; fill-opacity: 0.25; stroke: #55a868"/>
   </g>
   <g id="PolyCollection_2">
    <path d="M -35711999763.839996 307.584 
L -35711999763.839996 307.584 
L 57.6 307.584 
L 57.6 307.584 
L 64.7424 307.584 
L 64.7424 307.584 
L 71.8848 307.584 
L 71.8848 307.584 
L 79.0272 307.584 
L 79.0272 307.584 
L 86.1696 307.584 
L 86.1696 307.584 
L 93.312 307.584 
L 93.312 307.584 
L 100.4544 307.584 
L 100.4544 307.584 
L 107.5968 307.584 
L 107.5968 307.584 
L 114.7392 307.584 
L 114.7392 307.584 
L 121.8816 307.584 
L 121.8816 307.584 
L 129.024 307.584 
L 129.024 307.584 
L 136.1664 307.584 
L 136.1664 307.584 
L 143.3088 307.584 
L 143.3088 307.584 
L 150.4512 307.584 
L 150.4512 307.584 
L 157.5936 307.584 
L 157.5936 307.584 
L 164.736 307.584 
L 164.736 307.584 
L 171.8784 307.584 
L 171.8784 307.584 
L 179.0208 307.584 
L 179.0208 307.584 
L 186.1632 307.584 
L 186.1632 307.584 
L 193.3056 307.584 
L 193.3056 307.584 
L 200.448 307.584 
L 200.448 307.584 
L 207.5904 307.584 
L 207.5904 307.584 
L 214.7328 307.584 
L 214.7328 307.584 
L 221.8752 307.584 
L 221.8752 307.584 
L 229.0176 307.584 
L 229.0176 307.584 
L 236.16 307.584 
L 236.16 307.584 
L 243.3024 307.584 
L 243.3024 307.584 
L 250.4448 307.584 
L 250.4448 307.584 
L 257.5872 307.584 
L 257.5872 307.584 
L 264.7296 307.584 
L 264.7296 307.584 
L 271.872 307.584 
L 271.872 307.584 
L 279.0144 307.584 
L 279.0144 307.584 
L 286.1568 307.584 
L 286.1568 307.584 
L 293.2992 307.584 
L 293.2992 307.584 
L 300.4416 307.584 
L 300.4416 307.584 
L 307.584 307.584 
L 307.584 307.584 
L 314.7264 307.584 
L 314.7264 307.584 
L 321.8688 307.584 
L 321.8688 307.584 
L 329.0112 307.584 
L 329.0112 307.584 
L 336.1536 307.584 
L 336.1536 307.584 
L 343.296 307.584 
L 343.296 307.584 
L 350.4384 307.584 
L 350.4384 307.584 
L 357.5808 307.584 
L 357.5808 307.584 
L 364.7232 307.584 
L 364.7232 307.584 
L 371.8656 307.584 
L 371.8656 307.584 
L 379.008 307.584 
L 379.008 307.584 
L 386.1504 307.584 
L 386.1504 307.584 
L 393.2928 307.584 
L 393.2928 307.584 
L 400.4352 307.584 
L 400.4352 307.584 
L 407.5776 307.584 
L 407.5776 307.584 
L 414.72 307.584 
L 414.72 307.584 
L 35712000236.160004 307.584 
L 35712000236.160004 307.584 
L 35712000236.160004 307.584 
L 35712000236.160004 307.584 
L 35712000236.160004 307.584 
L 414.72 307.584 
L 414.72 307.584 
L 407.5776 307.584 
L 407.5776 307.584 
L 400.4352 307.584 
L 400.4352 307.584 
L 393.2928 307.584 
L 393.2928 307.584 
L 386.1504 307.584 
L 386.1504 307.584 
L 379.008 307.584 
L 379.008 307.584 
L 371.8656 307.584 
L 371.8656 307.584 
L 364.7232 307.584 
L 364.7232 307.584 
L 357.5808 307.584 
L 357.5808 307.584 
L 350.4384 307.584 
L 350.4384 307.584 
L 343.296 307.584 
L 343.296 307.584 
L 336.1536 307.584 
L 336.1536 307.584 
L 329.0112 307.584 
L 329.0112 307.584 
L 321.8688 307.584 
L 321.8688 307.552937 
L 314.7264 307.552937 
L 314.7264 307.428687 
L 307.584 307.428687 
L 307.584 307.459749 
L 300.4416 307.459749 
L 300.4416 307.366562 
L 293.2992 307.366562 
L 293.2992 306.900622 
L 286.1568 306.900622 
L 286.1568 306.714246 
L 279.0144 306.714246 
L 279.0144 305.254303 
L 271.872 305.254303 
L 271.872 304.291361 
L 264.7296 304.291361 
L 264.7296 301.122973 
L 257.5872 301.122973 
L 257.5872 296.83633 
L 250.4448 296.83633 
L 250.4448 289.598737 
L 243.3024 289.598737 
L 243.3024 280.559512 
L 236.16 280.559512 
L 236.16 268.227648 
L 229.0176 268.227648 
L 229.0176 251.391702 
L 221.8752 251.391702 
L 221.8752 227.16285 
L 214.7328 227.16285 
L 214.7328 200.82174 
L 207.5904 200.82174 
L 207.5904 172.83431 
L 200.448 172.83431 
L 200.448 144.008189 
L 193.3056 144.008189 
L 193.3056 111.237114 
L 186.1632 111.237114 
L 186.1632 88.250768 
L 179.0208 88.250768 
L 179.0208 74.645336 
L 171.8784 74.645336 
L 171.8784 61.81647 
L 164.736 61.81647 
L 164.736 58.244267 
L 157.5936 58.244267 
L 157.5936 70.91782 
L 150.4512 70.91782 
L 150.4512 82.286743 
L 143.3088 82.286743 
L 143.3088 112.728121 
L 136.1664 112.728121 
L 136.1664 146.897014 
L 129.024 146.897014 
L 129.024 170.318237 
L 121.8816 170.318237 
L 121.8816 200.573239 
L 114.7392 200.573239 
L 114.7392 225.827157 
L 107.5968 225.827157 
L 107.5968 250.366635 
L 100.4544 250.366635 
L 100.4544 266.985142 
L 93.312 266.985142 
L 93.312 281.056514 
L 86.1696 281.056514 
L 86.1696 291.058681 
L 79.0272 291.058681 
L 79.0272 296.37039 
L 71.8848 296.37039 
L 71.8848 300.408532 
L 64.7424 300.408532 
L 64.7424 303.670109 
L 57.6 303.670109 
L 57.6 307.584 
L -35711999763.839996 307.584 
z
" clip-path="url(#p4c17d978fb)" style="fill: #dd8452; fill-opacity: 0.25; stroke: #dd8452"/>
   </g>
   <g id="PolyCollection_3">
    <path d="M -35711999763.839996 307.584 
L -35711999763.839996 307.584 
L 57.6 307.584 
L 57.6 307.584 
L 64.7424 307.584 
L 64.7424 307.584 
L 71.8848 307.584 
L 71.8848 307.584 
L 79.0272 307.584 
L 79.0272 307.584 
L 86.1696 307.584 
L 86.1696 307.584 
L 93.312 307.584 
L 93.312 307.584 
L 100.4544 307.584 
L 100.4544 307.584 
L 107.5968 307.584 
L 107.5968 307.584 
L 114.7392 307.584 
L 114.7392 307.584 
L 121.8816 307.584 
L 121.8816 307.584 
L 129.024 307.584 
L 129.024 307.584 
L 136.1664 307.584 
L 136.1664 307.584 
L 143.3088 307.584 
L 143.3088 307.584 
L 150.4512 307.584 
L 150.4512 307.584 
L 157.5936 307.584 
L 157.5936 307.584 
L 164.736 307.584 
L 164.736 307.584 
L 171.8784 307.584 
L 171.8784 307.584 
L 179.0208 307.584 
L 179.0208 307.584 
L 186.1632 307.584 
L 186.1632 307.584 
L 193.3056 307.584 
L 193.3056 307.584 
L 200.448 307.584 
L 200.448 307.584 
L 207.5904 307.584 
L 207.5904 307.584 
L 214.7328 307.584 
L 214.7328 307.584 
L 221.8752 307.584 
L 221.8752 307.584 
L 229.0176 307.584 
L 229.0176 307.584 
L 236.16 307.584 
L 236.16 307.584 
L 243.3024 307.584 
L 243.3024 307.584 
L 250.4448 307.584 
L 250.4448 307.584 
L 257.5872 307.584 
L 257.5872 307.584 
L 264.7296 307.584 
L 264.7296 307.584 
L 271.872 307.584 
L 271.872 307.584 
L 279.0144 307.584 
L 279.0144 307.584 
L 286.1568 307.584 
L 286.1568 307.584 
L 293.2992 307.584 
L 293.2992 307.584 
L 300.4416 307.584 
L 300.4416 307.584 
L 307.584 307.584 
L 307.584 307.584 
L 314.7264 307.584 
L 314.7264 307.584 
L 321.8688 307.584 
L 321.8688 307.584 
L 329.0112 307.584 
L 329.0112 307.584 
L 336.1536 307.584 
L 336.1536 307.584 
L 343.296 307.584 
L 343.296 307.584 
L 350.4384 307.584 
L 350.4384 307.584 
L 357.5808 307.584 
L 357.5808 307.584 
L 364.7232 307.584 
L 364.7232 307.584 
L 371.8656 307.584 
L 371.8656 307.584 
L 379.008 307.584 
L 379.008 307.584 
L 386.1504 307.584 
L 386.1504 307.584 
L 393.2928 307.584 
L 393.2928 307.584 
L 400.4352 307.584 
L 400.4352 307.584 
L 407.5776 307.584 
L 407.5776 307.584 
L 414.72 307.584 
L 414.72 307.584 
L 35712000236.160004 307.584 
L 35712000236.160004 307.584 
L 35712000236.160004 307.584 
L 35712000236.160004 307.584 
L 35712000236.160004 307.584 
L 414.72 307.584 
L 414.72 307.584 
L 407.5776 307.584 
L 407.5776 307.584 
L 400.4352 307.584 
L 400.4352 307.552937 
L 393.2928 307.552937 
L 393.2928 307.584 
L 386.1504 307.584 
L 386.1504 307.459749 
L 379.008 307.459749 
L 379.008 307.459749 
L 371.8656 307.459749 
L 371.8656 307.211248 
L 364.7232 307.211248 
L 364.7232 306.931685 
L 357.5808 306.931685 
L 357.5808 306.776372 
L 350.4384 306.776372 
L 350.4384 305.378553 
L 343.296 305.378553 
L 343.296 303.980735 
L 336.1536 303.980735 
L 336.1536 300.781284 
L 329.0112 300.781284 
L 329.0112 295.593825 
L 321.8688 295.593825 
L 321.8688 290.375303 
L 314.7264 290.375303 
L 314.7264 280.342073 
L 307.584 280.342073 
L 307.584 267.948084 
L 300.4416 267.948084 
L 300.4416 246.856558 
L 293.2992 246.856558 
L 293.2992 230.766115 
L 286.1568 230.766115 
L 286.1568 203.524189 
L 279.0144 203.524189 
L 279.0144 173.082811 
L 271.872 173.082811 
L 271.872 142.765684 
L 264.7296 142.765684 
L 264.7296 109.124855 
L 257.5872 109.124855 
L 257.5872 86.915075 
L 250.4448 86.915075 
L 250.4448 71.787574 
L 243.3024 71.787574 
L 243.3024 64.146167 
L 236.16 64.146167 
L 236.16 54.144 
L 229.0176 54.144 
L 229.0176 69.14725 
L 221.8752 69.14725 
L 221.8752 93.158664 
L 214.7328 93.158664 
L 214.7328 117.201139 
L 207.5904 117.201139 
L 207.5904 147.518266 
L 200.448 147.518266 
L 200.448 172.368371 
L 193.3056 172.368371 
L 193.3056 196.10022 
L 186.1632 196.10022 
L 186.1632 224.149775 
L 179.0208 224.149775 
L 179.0208 247.974813 
L 171.8784 247.974813 
L 171.8784 267.140455 
L 164.736 267.140455 
L 164.736 280.279948 
L 157.5936 280.279948 
L 157.5936 290.437428 
L 150.4512 290.437428 
L 150.4512 296.432516 
L 143.3088 296.432516 
L 143.3088 301.122973 
L 136.1664 301.122973 
L 136.1664 304.260299 
L 129.024 304.260299 
L 129.024 305.937681 
L 121.8816 305.937681 
L 121.8816 306.683184 
L 114.7392 306.683184 
L 114.7392 306.776372 
L 107.5968 306.776372 
L 107.5968 307.335499 
L 100.4544 307.335499 
L 100.4544 307.490812 
L 93.312 307.490812 
L 93.312 307.490812 
L 86.1696 307.490812 
L 86.1696 307.552937 
L 79.0272 307.552937 
L 79.0272 307.552937 
L 71.8848 307.552937 
L 71.8848 307.584 
L 64.7424 307.584 
L 64.7424 307.584 
L 57.6 307.584 
L 57.6 307.584 
L -35711999763.839996 307.584 
z
" clip-path="url(#p4c17d978fb)" style="fill: #4c72b0; fill-opacity: 0.25; stroke: #4c72b0"/>
   </g>
   <g id="patch_3">
    <path d="M 57.6 307.584 
L 57.6 41.472 
" style="fill: none; stroke: #cccccc; stroke-width: 1.25; stroke-linejoin: miter; stroke-linecap: square"/>
   </g>
   <g id="patch_4">
    <path d="M 414.72 307.584 
L 414.72 41.472 
" style="fill: none; stroke: #cccccc; stroke-width: 1.25; stroke-linejoin: miter; stroke-linecap: square"/>
   </g>
   <g id="patch_5">
    <path d="M 57.6 307.584 
L 414.72 307.584 
" style="fill: none; stroke: #cccccc; stroke-width: 1.25; stroke-linejoin: miter; stroke-linecap: square"/>
   </g>
   <g id="patch_6">
    <path d="M 57.6 41.472 
L 414.72 41.472 
" style="fill: none; stroke: #cccccc; stroke-width: 1.25; stroke-linejoin: miter; stroke-linecap: square"/>
   </g>
   <g id="text_17">
    <!-- Normal Distribution -->
    <g style="fill: #262626" transform="translate(177.540937 35.472)scale(0.12 -0.12)">
     <defs>
      <path id="DejaVuSans-4e" d="M 628 4666 
L 1478 4666 
L 3547 763 
L 3547 4666 
L 4159 4666 
L 4159 0 
L 3309 0 
L 1241 3903 
L 1241 0 
L 628 0 
L 628 4666 
z
" transform="scale(0.015625)"/>
      <path id="DejaVuSans-6f" d="M 1959 3097 
Q 1497 3097 1228 2736 
Q 959 2375 959 1747 
Q 959 1119 1226 758 
Q 1494 397 1959 397 
Q 2419 397 2687 759 
Q 2956 1122 2956 1747 
Q 2956 2369 2687 2733 
Q 2419 3097 1959 3097 
z
M 1959 3584 
Q 2709 3584 3137 3096 
Q 3566 2609 3566 1747 
Q 3566 888 3137 398 
Q 2709 -91 1959 -91 
Q 1206 -91 779 398 
Q 353 888 353 1747 
Q 353 2609 779 3096 
Q 1206 3584 1959 3584 
z
" transform="scale(0.015625)"/>
      <path id="DejaVuSans-72" d="M 2631 2963 
Q 2534 3019 2420 3045 
Q 2306 3072 2169 3072 
Q 1681 3072 1420 2755 
Q 1159 2438 1159 1844 
L 1159 0 
L 581 0 
L 581 3500 
L 1159 3500 
L 1159 2956 
Q 1341 3275 1631 3429 
Q 1922 3584 2338 3584 
Q 2397 3584 2469 3576 
Q 2541 3569 2628 3553 
L 2631 2963 
z
" transform="scale(0.015625)"/>
      <path id="DejaVuSans-6d" d="M 3328 2828 
Q 3544 3216 3844 3400 
Q 4144 3584 4550 3584 
Q 5097 3584 5394 3201 
Q 5691 2819 5691 2113 
L 5691 0 
L 5113 0 
L 5113 2094 
Q 5113 2597 4934 2840 
Q 4756 3084 4391 3084 
Q 3944 3084 3684 2787 
Q 3425 2491 3425 1978 
L 3425 0 
L 2847 0 
L 2847 2094 
Q 2847 2600 2669 2842 
Q 2491 3084 2119 3084 
Q 1678 3084 1418 2786 
Q 1159 2488 1159 1978 
L 1159 0 
L 581 0 
L 581 3500 
L 1159 3500 
L 1159 2956 
Q 1356 3278 1631 3431 
Q 1906 3584 2284 3584 
Q 2666 3584 2933 3390 
Q 3200 3197 3328 2828 
z
" transform="scale(0.015625)"/>
      <path id="DejaVuSans-20" transform="scale(0.015625)"/>
      <path id="DejaVuSans-62" d="M 3116 1747 
Q 3116 2381 2855 2742 
Q 2594 3103 2138 3103 
Q 1681 3103 1420 2742 
Q 1159 2381 1159 1747 
Q 1159 1113 1420 752 
Q 1681 391 2138 391 
Q 2594 391 2855 752 
Q 3116 1113 3116 1747 
z
M 1159 2969 
Q 1341 3281 1617 3432 
Q 1894 3584 2278 3584 
Q 2916 3584 3314 3078 
Q 3713 2572 3713 1747 
Q 3713 922 3314 415 
Q 2916 -91 2278 -91 
Q 1894 -91 1617 61 
Q 1341 213 1159 525 
L 1159 0 
L 581 0 
L 581 4863 
L 1159 4863 
L 1159 2969 
z
" transform="scale(0.015625)"/>
     </defs>
     <use xlink:href="#DejaVuSans-4e"/>
     <use xlink:href="#DejaVuSans-6f" x="74.804688"/>
     <use xlink:href="#DejaVuSans-72" x="135.986328"/>
     <use xlink:href="#DejaVuSans-6d" x="175.349609"/>
     <use xlink:href="#DejaVuSans-61" x="272.761719"/>
     <use xlink:href="#DejaVuSans-6c" x="334.041016"/>
     <use xlink:href="#DejaVuSans-20" x="361.824219"/>
     <use xlink:href="#DejaVuSans-44" x="393.611328"/>
     <use xlink:href="#DejaVuSans-69" x="470.613281"/>
     <use xlink:href="#DejaVuSans-73" x="498.396484"/>
     <use xlink:href="#DejaVuSans-74" x="550.496094"/>
     <use xlink:href="#DejaVuSans-72" x="589.705078"/>
     <use xlink:href="#DejaVuSans-69" x="630.818359"/>
     <use xlink:href="#DejaVuSans-62" x="658.601562"/>
     <use xlink:href="#DejaVuSans-75" x="722.078125"/>
     <use xlink:href="#DejaVuSans-74" x="785.457031"/>
     <use xlink:href="#DejaVuSans-69" x="824.666016"/>
     <use xlink:href="#DejaVuSans-6f" x="852.449219"/>
     <use xlink:href="#DejaVuSans-6e" x="913.630859"/>
    </g>
   </g>
   <g id="legend_1">
    <g id="patch_7">
     <path d="M 260.025625 115.823562 
L 407.02 115.823562 
Q 409.22 115.823562 409.22 113.623562 
L 409.22 49.172 
Q 409.22 46.972 407.02 46.972 
L 260.025625 46.972 
Q 257.825625 46.972 257.825625 49.172 
L 257.825625 113.623562 
Q 257.825625 115.823562 260.025625 115.823562 
z
" style="fill: #ffffff; opacity: 0.8; stroke: #cccccc; stroke-linejoin: miter"/>
    </g>
    <g id="text_18">
     <!-- Distribution -->
     <g style="fill: #262626" transform="translate(298.520312 60.490125)scale(0.12 -0.12)">
      <use xlink:href="#DejaVuSans-44"/>
      <use xlink:href="#DejaVuSans-69" x="77.001953"/>
      <use xlink:href="#DejaVuSans-73" x="104.785156"/>
      <use xlink:href="#DejaVuSans-74" x="156.884766"/>
      <use xlink:href="#DejaVuSans-72" x="196.09375"/>
      <use xlink:href="#DejaVuSans-69" x="237.207031"/>
      <use xlink:href="#DejaVuSans-62" x="264.990234"/>
      <use xlink:href="#DejaVuSans-75" x="328.466797"/>
      <use xlink:href="#DejaVuSans-74" x="391.845703"/>
      <use xlink:href="#DejaVuSans-69" x="431.054688"/>
      <use xlink:href="#DejaVuSans-6f" x="458.837891"/>
      <use xlink:href="#DejaVuSans-6e" x="520.019531"/>
     </g>
    </g>
    <g id="patch_8">
     <path d="M 262.225625 76.844031 
L 284.225625 76.844031 
L 284.225625 69.144031 
L 262.225625 69.144031 
z
" style="fill: #4c72b0; fill-opacity: 0.25; stroke: #4c72b0; stroke-linejoin: miter"/>
    </g>
    <g id="text_19">
     <!-- pp.Normal( 0.0, 1.0) -->
     <g style="fill: #262626" transform="translate(293.025625 76.844031)scale(0.11 -0.11)">
      <defs>
       <path id="DejaVuSans-70" d="M 1159 525 
L 1159 -1331 
L 581 -1331 
L 581 3500 
L 1159 3500 
L 1159 2969 
Q 1341 3281 1617 3432 
Q 1894 3584 2278 3584 
Q 2916 3584 3314 3078 
Q 3713 2572 3713 1747 
Q 3713 922 3314 415 
Q 2916 -91 2278 -91 
Q 1894 -91 1617 61 
Q 1341 213 1159 525 
z
M 3116 1747 
Q 3116 2381 2855 2742 
Q 2594 3103 2138 3103 
Q 1681 3103 1420 2742 
Q 1159 2381 1159 1747 
Q 1159 1113 1420 752 
Q 1681 391 2138 391 
Q 2594 391 2855 752 
Q 3116 1113 3116 1747 
z
" transform="scale(0.015625)"/>
       <path id="DejaVuSans-28" d="M 1984 4856 
Q 1566 4138 1362 3434 
Q 1159 2731 1159 2009 
Q 1159 1288 1364 580 
Q 1569 -128 1984 -844 
L 1484 -844 
Q 1016 -109 783 600 
Q 550 1309 550 2009 
Q 550 2706 781 3412 
Q 1013 4119 1484 4856 
L 1984 4856 
z
" transform="scale(0.015625)"/>
       <path id="DejaVuSans-2c" d="M 750 794 
L 1409 794 
L 1409 256 
L 897 -744 
L 494 -744 
L 750 256 
L 750 794 
z
" transform="scale(0.015625)"/>
       <path id="DejaVuSans-29" d="M 513 4856 
L 1013 4856 
Q 1481 4119 1714 3412 
Q 1947 2706 1947 2009 
Q 1947 1309 1714 600 
Q 1481 -109 1013 -844 
L 513 -844 
Q 928 -128 1133 580 
Q 1338 1288 1338 2009 
Q 1338 2731 1133 3434 
Q 928 4138 513 4856 
z
" transform="scale(0.015625)"/>
      </defs>
      <use xlink:href="#DejaVuSans-70"/>
      <use xlink:href="#DejaVuSans-70" x="63.476562"/>
      <use xlink:href="#DejaVuSans-2e" x="126.953125"/>
      <use xlink:href="#DejaVuSans-4e" x="158.740234"/>
      <use xlink:href="#DejaVuSans-6f" x="233.544922"/>
      <use xlink:href="#DejaVuSans-72" x="294.726562"/>
      <use xlink:href="#DejaVuSans-6d" x="334.089844"/>
      <use xlink:href="#DejaVuSans-61" x="431.501953"/>
      <use xlink:href="#DejaVuSans-6c" x="492.78125"/>
      <use xlink:href="#DejaVuSans-28" x="520.564453"/>
      <use xlink:href="#DejaVuSans-20" x="559.578125"/>
      <use xlink:href="#DejaVuSans-30" x="591.365234"/>
      <use xlink:href="#DejaVuSans-2e" x="654.988281"/>
      <use xlink:href="#DejaVuSans-30" x="686.775391"/>
      <use xlink:href="#DejaVuSans-2c" x="750.398438"/>
      <use xlink:href="#DejaVuSans-20" x="782.185547"/>
      <use xlink:href="#DejaVuSans-31" x="813.972656"/>
      <use xlink:href="#DejaVuSans-2e" x="877.595703"/>
      <use xlink:href="#DejaVuSans-30" x="909.382812"/>
      <use xlink:href="#DejaVuSans-29" x="973.005859"/>
     </g>
    </g>
    <g id="patch_9">
     <path d="M 262.225625 92.989969 
L 284.225625 92.989969 
L 284.225625 85.289969 
L 262.225625 85.289969 
z
" style="fill: #dd8452; fill-opacity: 0.25; stroke: #dd8452; stroke-linejoin: miter"/>
    </g>
    <g id="text_20">
     <!-- pp.Normal(-2.0, 1.0) -->
     <g style="fill: #262626" transform="translate(293.025625 92.989969)scale(0.11 -0.11)">
      <defs>
       <path id="DejaVuSans-2d" d="M 313 2009 
L 1997 2009 
L 1997 1497 
L 313 1497 
L 313 2009 
z
" transform="scale(0.015625)"/>
      </defs>
      <use xlink:href="#DejaVuSans-70"/>
      <use xlink:href="#DejaVuSans-70" x="63.476562"/>
      <use xlink:href="#DejaVuSans-2e" x="126.953125"/>
      <use xlink:href="#DejaVuSans-4e" x="158.740234"/>
      <use xlink:href="#DejaVuSans-6f" x="233.544922"/>
      <use xlink:href="#DejaVuSans-72" x="294.726562"/>
      <use xlink:href="#DejaVuSans-6d" x="334.089844"/>
      <use xlink:href="#DejaVuSans-61" x="431.501953"/>
      <use xlink:href="#DejaVuSans-6c" x="492.78125"/>
      <use xlink:href="#DejaVuSans-28" x="520.564453"/>
      <use xlink:href="#DejaVuSans-2d" x="559.578125"/>
      <use xlink:href="#DejaVuSans-32" x="595.662109"/>
      <use xlink:href="#DejaVuSans-2e" x="659.285156"/>
      <use xlink:href="#DejaVuSans-30" x="691.072266"/>
      <use xlink:href="#DejaVuSans-2c" x="754.695312"/>
      <use xlink:href="#DejaVuSans-20" x="786.482422"/>
      <use xlink:href="#DejaVuSans-31" x="818.269531"/>
      <use xlink:href="#DejaVuSans-2e" x="881.892578"/>
      <use xlink:href="#DejaVuSans-30" x="913.679688"/>
      <use xlink:href="#DejaVuSans-29" x="977.302734"/>
     </g>
    </g>
    <g id="patch_10">
     <path d="M 262.225625 109.135906 
L 284.225625 109.135906 
L 284.225625 101.435906 
L 262.225625 101.435906 
z
" style="fill: #55a868; fill-opacity: 0.25; stroke: #55a868; stroke-linejoin: miter"/>
    </g>
    <g id="text_21">
     <!-- pp.Normal( 2.0, 2.0) -->
     <g style="fill: #262626" transform="translate(293.025625 109.135906)scale(0.11 -0.11)">
      <use xlink:href="#DejaVuSans-70"/>
      <use xlink:href="#DejaVuSans-70" x="63.476562"/>
      <use xlink:href="#DejaVuSans-2e" x="126.953125"/>
      <use xlink:href="#DejaVuSans-4e" x="158.740234"/>
      <use xlink:href="#DejaVuSans-6f" x="233.544922"/>
      <use xlink:href="#DejaVuSans-72" x="294.726562"/>
      <use xlink:href="#DejaVuSans-6d" x="334.089844"/>
      <use xlink:href="#DejaVuSans-61" x="431.501953"/>
      <use xlink:href="#DejaVuSans-6c" x="492.78125"/>
      <use xlink:href="#DejaVuSans-28" x="520.564453"/>
      <use xlink:href="#DejaVuSans-20" x="559.578125"/>
      <use xlink:href="#DejaVuSans-32" x="591.365234"/>
      <use xlink:href="#DejaVuSans-2e" x="654.988281"/>
      <use xlink:href="#DejaVuSans-30" x="686.775391"/>
      <use xlink:href="#DejaVuSans-2c" x="750.398438"/>
      <use xlink:href="#DejaVuSans-20" x="782.185547"/>
      <use xlink:href="#DejaVuSans-32" x="813.972656"/>
      <use xlink:href="#DejaVuSans-2e" x="877.595703"/>
      <use xlink:href="#DejaVuSans-30" x="909.382812"/>
      <use xlink:href="#DejaVuSans-29" x="973.005859"/>
     </g>
    </g>
   </g>
  </g>
 </g>
 <defs>
  <clipPath id="p4c17d978fb">
   <rect x="57.6" y="41.472" width="357.12" height="266.112"/>
  </clipPath>
 </defs>
</svg>
