<?xml version="1.0" encoding="utf-8" standalone="no"?>
<!DOCTYPE svg PUBLIC "-//W3C//DTD SVG 1.1//EN"
  "http://www.w3.org/Graphics/SVG/1.1/DTD/svg11.dtd">
<svg xmlns:xlink="http://www.w3.org/1999/xlink" width="460.8pt" height="345.6pt" viewBox="0 0 460.8 345.6" xmlns="http://www.w3.org/2000/svg" version="1.1">
 <metadata>
  <rdf:RDF xmlns:dc="http://purl.org/dc/elements/1.1/" xmlns:cc="http://creativecommons.org/ns#" xmlns:rdf="http://www.w3.org/1999/02/22-rdf-syntax-ns#">
   <cc:Work>
    <dc:type rdf:resource="http://purl.org/dc/dcmitype/StillImage"/>
    <dc:date>2022-05-25T19:57:55.375441</dc:date>
    <dc:format>image/svg+xml</dc:format>
    <dc:creator>
     <cc:Agent>
      <dc:title>Matplotlib v3.5.2, https://matplotlib.org/</dc:title>
     </cc:Agent>
    </dc:creator>
   </cc:Work>
  </rdf:RDF>
 </metadata>
 <defs>
  <style type="text/css">*{stroke-linejoin: round; stroke-linecap: butt}</style>
 </defs>
 <g id="figure_1">
  <g id="patch_1">
   <path d="M 0 345.6 
L 460.8 345.6 
L 460.8 0 
L 0 0 
z
" style="fill: #ffffff"/>
  </g>
  <g id="axes_1">
   <g id="patch_2">
    <path d="M 57.6 307.584 
L 414.72 307.584 
L 414.72 41.472 
L 57.6 41.472 
z
" style="fill: #ffffff"/>
   </g>
   <g id="matplotlib.axis_1">
    <g id="xtick_1">
     <g id="line2d_1">
      <path d="M 93.312 307.584 
L 93.312 41.472 
" clip-path="url(#pd907996dfa)" style="fill: none; stroke: #cccccc; stroke-linecap: round"/>
     </g>
     <g id="text_1">
      <!-- −4 -->
      <g style="fill: #262626" transform="translate(85.203797 325.442281)scale(0.11 -0.11)">
       <defs>
        <path id="DejaVuSans-2212" d="M 678 2272 
L 4684 2272 
L 4684 1741 
L 678 1741 
L 678 2272 
z
" transform="scale(0.015625)"/>
        <path id="DejaVuSans-34" d="M 2419 4116 
L 825 1625 
L 2419 1625 
L 2419 4116 
z
M 2253 4666 
L 3047 4666 
L 3047 1625 
L 3713 1625 
L 3713 1100 
L 3047 1100 
L 3047 0 
L 2419 0 
L 2419 1100 
L 313 1100 
L 313 1709 
L 2253 4666 
z
" transform="scale(0.015625)"/>
       </defs>
       <use xlink:href="#DejaVuSans-2212"/>
       <use xlink:href="#DejaVuSans-34" x="83.789062"/>
      </g>
     </g>
    </g>
    <g id="xtick_2">
     <g id="line2d_2">
      <path d="M 164.736 307.584 
L 164.736 41.472 
" clip-path="url(#pd907996dfa)" style="fill: none; stroke: #cccccc; stroke-linecap: round"/>
     </g>
     <g id="text_2">
      <!-- −2 -->
      <g style="fill: #262626" transform="translate(156.627797 325.442281)scale(0.11 -0.11)">
       <defs>
        <path id="DejaVuSans-32" d="M 1228 531 
L 3431 531 
L 3431 0 
L 469 0 
L 469 531 
Q 828 903 1448 1529 
Q 2069 2156 2228 2338 
Q 2531 2678 2651 2914 
Q 2772 3150 2772 3378 
Q 2772 3750 2511 3984 
Q 2250 4219 1831 4219 
Q 1534 4219 1204 4116 
Q 875 4013 500 3803 
L 500 4441 
Q 881 4594 1212 4672 
Q 1544 4750 1819 4750 
Q 2544 4750 2975 4387 
Q 3406 4025 3406 3419 
Q 3406 3131 3298 2873 
Q 3191 2616 2906 2266 
Q 2828 2175 2409 1742 
Q 1991 1309 1228 531 
z
" transform="scale(0.015625)"/>
       </defs>
       <use xlink:href="#DejaVuSans-2212"/>
       <use xlink:href="#DejaVuSans-32" x="83.789062"/>
      </g>
     </g>
    </g>
    <g id="xtick_3">
     <g id="line2d_3">
      <path d="M 236.16 307.584 
L 236.16 41.472 
" clip-path="url(#pd907996dfa)" style="fill: none; stroke: #cccccc; stroke-linecap: round"/>
     </g>
     <g id="text_3">
      <!-- 0 -->
      <g style="fill: #262626" transform="translate(232.660625 325.442281)scale(0.11 -0.11)">
       <defs>
        <path id="DejaVuSans-30" d="M 2034 4250 
Q 1547 4250 1301 3770 
Q 1056 3291 1056 2328 
Q 1056 1369 1301 889 
Q 1547 409 2034 409 
Q 2525 409 2770 889 
Q 3016 1369 3016 2328 
Q 3016 3291 2770 3770 
Q 2525 4250 2034 4250 
z
M 2034 4750 
Q 2819 4750 3233 4129 
Q 3647 3509 3647 2328 
Q 3647 1150 3233 529 
Q 2819 -91 2034 -91 
Q 1250 -91 836 529 
Q 422 1150 422 2328 
Q 422 3509 836 4129 
Q 1250 4750 2034 4750 
z
" transform="scale(0.015625)"/>
       </defs>
       <use xlink:href="#DejaVuSans-30"/>
      </g>
     </g>
    </g>
    <g id="xtick_4">
     <g id="line2d_4">
      <path d="M 307.584 307.584 
L 307.584 41.472 
" clip-path="url(#pd907996dfa)" style="fill: none; stroke: #cccccc; stroke-linecap: round"/>
     </g>
     <g id="text_4">
      <!-- 2 -->
      <g style="fill: #262626" transform="translate(304.084625 325.442281)scale(0.11 -0.11)">
       <use xlink:href="#DejaVuSans-32"/>
      </g>
     </g>
    </g>
    <g id="xtick_5">
     <g id="line2d_5">
      <path d="M 379.008 307.584 
L 379.008 41.472 
" clip-path="url(#pd907996dfa)" style="fill: none; stroke: #cccccc; stroke-linecap: round"/>
     </g>
     <g id="text_5">
      <!-- 4 -->
      <g style="fill: #262626" transform="translate(375.508625 325.442281)scale(0.11 -0.11)">
       <use xlink:href="#DejaVuSans-34"/>
      </g>
     </g>
    </g>
    <g id="text_6">
     <!-- Value -->
     <g style="fill: #262626" transform="translate(219.6825 340.848062)scale(0.12 -0.12)">
      <defs>
       <path id="DejaVuSans-56" d="M 1831 0 
L 50 4666 
L 709 4666 
L 2188 738 
L 3669 4666 
L 4325 4666 
L 2547 0 
L 1831 0 
z
" transform="scale(0.015625)"/>
       <path id="DejaVuSans-61" d="M 2194 1759 
Q 1497 1759 1228 1600 
Q 959 1441 959 1056 
Q 959 750 1161 570 
Q 1363 391 1709 391 
Q 2188 391 2477 730 
Q 2766 1069 2766 1631 
L 2766 1759 
L 2194 1759 
z
M 3341 1997 
L 3341 0 
L 2766 0 
L 2766 531 
Q 2569 213 2275 61 
Q 1981 -91 1556 -91 
Q 1019 -91 701 211 
Q 384 513 384 1019 
Q 384 1609 779 1909 
Q 1175 2209 1959 2209 
L 2766 2209 
L 2766 2266 
Q 2766 2663 2505 2880 
Q 2244 3097 1772 3097 
Q 1472 3097 1187 3025 
Q 903 2953 641 2809 
L 641 3341 
Q 956 3463 1253 3523 
Q 1550 3584 1831 3584 
Q 2591 3584 2966 3190 
Q 3341 2797 3341 1997 
z
" transform="scale(0.015625)"/>
       <path id="DejaVuSans-6c" d="M 603 4863 
L 1178 4863 
L 1178 0 
L 603 0 
L 603 4863 
z
" transform="scale(0.015625)"/>
       <path id="DejaVuSans-75" d="M 544 1381 
L 544 3500 
L 1119 3500 
L 1119 1403 
Q 1119 906 1312 657 
Q 1506 409 1894 409 
Q 2359 409 2629 706 
Q 2900 1003 2900 1516 
L 2900 3500 
L 3475 3500 
L 3475 0 
L 2900 0 
L 2900 538 
Q 2691 219 2414 64 
Q 2138 -91 1772 -91 
Q 1169 -91 856 284 
Q 544 659 544 1381 
z
M 1991 3584 
L 1991 3584 
z
" transform="scale(0.015625)"/>
       <path id="DejaVuSans-65" d="M 3597 1894 
L 3597 1613 
L 953 1613 
Q 991 1019 1311 708 
Q 1631 397 2203 397 
Q 2534 397 2845 478 
Q 3156 559 3463 722 
L 3463 178 
Q 3153 47 2828 -22 
Q 2503 -91 2169 -91 
Q 1331 -91 842 396 
Q 353 884 353 1716 
Q 353 2575 817 3079 
Q 1281 3584 2069 3584 
Q 2775 3584 3186 3129 
Q 3597 2675 3597 1894 
z
M 3022 2063 
Q 3016 2534 2758 2815 
Q 2500 3097 2075 3097 
Q 1594 3097 1305 2825 
Q 1016 2553 972 2059 
L 3022 2063 
z
" transform="scale(0.015625)"/>
      </defs>
      <use xlink:href="#DejaVuSans-56"/>
      <use xlink:href="#DejaVuSans-61" x="60.658203"/>
      <use xlink:href="#DejaVuSans-6c" x="121.9375"/>
      <use xlink:href="#DejaVuSans-75" x="149.720703"/>
      <use xlink:href="#DejaVuSans-65" x="213.099609"/>
     </g>
    </g>
   </g>
   <g id="matplotlib.axis_2">
    <g id="ytick_1">
     <g id="line2d_6">
      <path d="M 57.6 307.584 
L 414.72 307.584 
" clip-path="url(#pd907996dfa)" style="fill: none; stroke: #cccccc; stroke-linecap: round"/>
     </g>
     <g id="text_7">
      <!-- 0.00 -->
      <g style="fill: #262626" transform="translate(23.607813 311.763141)scale(0.11 -0.11)">
       <defs>
        <path id="DejaVuSans-2e" d="M 684 794 
L 1344 794 
L 1344 0 
L 684 0 
L 684 794 
z
" transform="scale(0.015625)"/>
       </defs>
       <use xlink:href="#DejaVuSans-30"/>
       <use xlink:href="#DejaVuSans-2e" x="63.623047"/>
       <use xlink:href="#DejaVuSans-30" x="95.410156"/>
       <use xlink:href="#DejaVuSans-30" x="159.033203"/>
      </g>
     </g>
    </g>
    <g id="ytick_2">
     <g id="line2d_7">
      <path d="M 57.6 275.571874 
L 414.72 275.571874 
" clip-path="url(#pd907996dfa)" style="fill: none; stroke: #cccccc; stroke-linecap: round"/>
     </g>
     <g id="text_8">
      <!-- 0.05 -->
      <g style="fill: #262626" transform="translate(23.607813 279.751015)scale(0.11 -0.11)">
       <defs>
        <path id="DejaVuSans-35" d="M 691 4666 
L 3169 4666 
L 3169 4134 
L 1269 4134 
L 1269 2991 
Q 1406 3038 1543 3061 
Q 1681 3084 1819 3084 
Q 2600 3084 3056 2656 
Q 3513 2228 3513 1497 
Q 3513 744 3044 326 
Q 2575 -91 1722 -91 
Q 1428 -91 1123 -41 
Q 819 9 494 109 
L 494 744 
Q 775 591 1075 516 
Q 1375 441 1709 441 
Q 2250 441 2565 725 
Q 2881 1009 2881 1497 
Q 2881 1984 2565 2268 
Q 2250 2553 1709 2553 
Q 1456 2553 1204 2497 
Q 953 2441 691 2322 
L 691 4666 
z
" transform="scale(0.015625)"/>
       </defs>
       <use xlink:href="#DejaVuSans-30"/>
       <use xlink:href="#DejaVuSans-2e" x="63.623047"/>
       <use xlink:href="#DejaVuSans-30" x="95.410156"/>
       <use xlink:href="#DejaVuSans-35" x="159.033203"/>
      </g>
     </g>
    </g>
    <g id="ytick_3">
     <g id="line2d_8">
      <path d="M 57.6 243.559748 
L 414.72 243.559748 
" clip-path="url(#pd907996dfa)" style="fill: none; stroke: #cccccc; stroke-linecap: round"/>
     </g>
     <g id="text_9">
      <!-- 0.10 -->
      <g style="fill: #262626" transform="translate(23.607813 247.738889)scale(0.11 -0.11)">
       <defs>
        <path id="DejaVuSans-31" d="M 794 531 
L 1825 531 
L 1825 4091 
L 703 3866 
L 703 4441 
L 1819 4666 
L 2450 4666 
L 2450 531 
L 3481 531 
L 3481 0 
L 794 0 
L 794 531 
z
" transform="scale(0.015625)"/>
       </defs>
       <use xlink:href="#DejaVuSans-30"/>
       <use xlink:href="#DejaVuSans-2e" x="63.623047"/>
       <use xlink:href="#DejaVuSans-31" x="95.410156"/>
       <use xlink:href="#DejaVuSans-30" x="159.033203"/>
      </g>
     </g>
    </g>
    <g id="ytick_4">
     <g id="line2d_9">
      <path d="M 57.6 211.547623 
L 414.72 211.547623 
" clip-path="url(#pd907996dfa)" style="fill: none; stroke: #cccccc; stroke-linecap: round"/>
     </g>
     <g id="text_10">
      <!-- 0.15 -->
      <g style="fill: #262626" transform="translate(23.607813 215.726763)scale(0.11 -0.11)">
       <use xlink:href="#DejaVuSans-30"/>
       <use xlink:href="#DejaVuSans-2e" x="63.623047"/>
       <use xlink:href="#DejaVuSans-31" x="95.410156"/>
       <use xlink:href="#DejaVuSans-35" x="159.033203"/>
      </g>
     </g>
    </g>
    <g id="ytick_5">
     <g id="line2d_10">
      <path d="M 57.6 179.535497 
L 414.72 179.535497 
" clip-path="url(#pd907996dfa)" style="fill: none; stroke: #cccccc; stroke-linecap: round"/>
     </g>
     <g id="text_11">
      <!-- 0.20 -->
      <g style="fill: #262626" transform="translate(23.607813 183.714637)scale(0.11 -0.11)">
       <use xlink:href="#DejaVuSans-30"/>
       <use xlink:href="#DejaVuSans-2e" x="63.623047"/>
       <use xlink:href="#DejaVuSans-32" x="95.410156"/>
       <use xlink:href="#DejaVuSans-30" x="159.033203"/>
      </g>
     </g>
    </g>
    <g id="ytick_6">
     <g id="line2d_11">
      <path d="M 57.6 147.523371 
L 414.72 147.523371 
" clip-path="url(#pd907996dfa)" style="fill: none; stroke: #cccccc; stroke-linecap: round"/>
     </g>
     <g id="text_12">
      <!-- 0.25 -->
      <g style="fill: #262626" transform="translate(23.607813 151.702512)scale(0.11 -0.11)">
       <use xlink:href="#DejaVuSans-30"/>
       <use xlink:href="#DejaVuSans-2e" x="63.623047"/>
       <use xlink:href="#DejaVuSans-32" x="95.410156"/>
       <use xlink:href="#DejaVuSans-35" x="159.033203"/>
      </g>
     </g>
    </g>
    <g id="ytick_7">
     <g id="line2d_12">
      <path d="M 57.6 115.511245 
L 414.72 115.511245 
" clip-path="url(#pd907996dfa)" style="fill: none; stroke: #cccccc; stroke-linecap: round"/>
     </g>
     <g id="text_13">
      <!-- 0.30 -->
      <g style="fill: #262626" transform="translate(23.607813 119.690386)scale(0.11 -0.11)">
       <defs>
        <path id="DejaVuSans-33" d="M 2597 2516 
Q 3050 2419 3304 2112 
Q 3559 1806 3559 1356 
Q 3559 666 3084 287 
Q 2609 -91 1734 -91 
Q 1441 -91 1130 -33 
Q 819 25 488 141 
L 488 750 
Q 750 597 1062 519 
Q 1375 441 1716 441 
Q 2309 441 2620 675 
Q 2931 909 2931 1356 
Q 2931 1769 2642 2001 
Q 2353 2234 1838 2234 
L 1294 2234 
L 1294 2753 
L 1863 2753 
Q 2328 2753 2575 2939 
Q 2822 3125 2822 3475 
Q 2822 3834 2567 4026 
Q 2313 4219 1838 4219 
Q 1578 4219 1281 4162 
Q 984 4106 628 3988 
L 628 4550 
Q 988 4650 1302 4700 
Q 1616 4750 1894 4750 
Q 2613 4750 3031 4423 
Q 3450 4097 3450 3541 
Q 3450 3153 3228 2886 
Q 3006 2619 2597 2516 
z
" transform="scale(0.015625)"/>
       </defs>
       <use xlink:href="#DejaVuSans-30"/>
       <use xlink:href="#DejaVuSans-2e" x="63.623047"/>
       <use xlink:href="#DejaVuSans-33" x="95.410156"/>
       <use xlink:href="#DejaVuSans-30" x="159.033203"/>
      </g>
     </g>
    </g>
    <g id="ytick_8">
     <g id="line2d_13">
      <path d="M 57.6 83.499119 
L 414.72 83.499119 
" clip-path="url(#pd907996dfa)" style="fill: none; stroke: #cccccc; stroke-linecap: round"/>
     </g>
     <g id="text_14">
      <!-- 0.35 -->
      <g style="fill: #262626" transform="translate(23.607813 87.67826)scale(0.11 -0.11)">
       <use xlink:href="#DejaVuSans-30"/>
       <use xlink:href="#DejaVuSans-2e" x="63.623047"/>
       <use xlink:href="#DejaVuSans-33" x="95.410156"/>
       <use xlink:href="#DejaVuSans-35" x="159.033203"/>
      </g>
     </g>
    </g>
    <g id="ytick_9">
     <g id="line2d_14">
      <path d="M 57.6 51.486994 
L 414.72 51.486994 
" clip-path="url(#pd907996dfa)" style="fill: none; stroke: #cccccc; stroke-linecap: round"/>
     </g>
     <g id="text_15">
      <!-- 0.40 -->
      <g style="fill: #262626" transform="translate(23.607813 55.666134)scale(0.11 -0.11)">
       <use xlink:href="#DejaVuSans-30"/>
       <use xlink:href="#DejaVuSans-2e" x="63.623047"/>
       <use xlink:href="#DejaVuSans-34" x="95.410156"/>
       <use xlink:href="#DejaVuSans-30" x="159.033203"/>
      </g>
     </g>
    </g>
    <g id="text_16">
     <!-- Density -->
     <g style="fill: #262626" transform="translate(17.112187 197.338313)rotate(-90)scale(0.12 -0.12)">
      <defs>
       <path id="DejaVuSans-44" d="M 1259 4147 
L 1259 519 
L 2022 519 
Q 2988 519 3436 956 
Q 3884 1394 3884 2338 
Q 3884 3275 3436 3711 
Q 2988 4147 2022 4147 
L 1259 4147 
z
M 628 4666 
L 1925 4666 
Q 3281 4666 3915 4102 
Q 4550 3538 4550 2338 
Q 4550 1131 3912 565 
Q 3275 0 1925 0 
L 628 0 
L 628 4666 
z
" transform="scale(0.015625)"/>
       <path id="DejaVuSans-6e" d="M 3513 2113 
L 3513 0 
L 2938 0 
L 2938 2094 
Q 2938 2591 2744 2837 
Q 2550 3084 2163 3084 
Q 1697 3084 1428 2787 
Q 1159 2491 1159 1978 
L 1159 0 
L 581 0 
L 581 3500 
L 1159 3500 
L 1159 2956 
Q 1366 3272 1645 3428 
Q 1925 3584 2291 3584 
Q 2894 3584 3203 3211 
Q 3513 2838 3513 2113 
z
" transform="scale(0.015625)"/>
       <path id="DejaVuSans-73" d="M 2834 3397 
L 2834 2853 
Q 2591 2978 2328 3040 
Q 2066 3103 1784 3103 
Q 1356 3103 1142 2972 
Q 928 2841 928 2578 
Q 928 2378 1081 2264 
Q 1234 2150 1697 2047 
L 1894 2003 
Q 2506 1872 2764 1633 
Q 3022 1394 3022 966 
Q 3022 478 2636 193 
Q 2250 -91 1575 -91 
Q 1294 -91 989 -36 
Q 684 19 347 128 
L 347 722 
Q 666 556 975 473 
Q 1284 391 1588 391 
Q 1994 391 2212 530 
Q 2431 669 2431 922 
Q 2431 1156 2273 1281 
Q 2116 1406 1581 1522 
L 1381 1569 
Q 847 1681 609 1914 
Q 372 2147 372 2553 
Q 372 3047 722 3315 
Q 1072 3584 1716 3584 
Q 2034 3584 2315 3537 
Q 2597 3491 2834 3397 
z
" transform="scale(0.015625)"/>
       <path id="DejaVuSans-69" d="M 603 3500 
L 1178 3500 
L 1178 0 
L 603 0 
L 603 3500 
z
M 603 4863 
L 1178 4863 
L 1178 4134 
L 603 4134 
L 603 4863 
z
" transform="scale(0.015625)"/>
       <path id="DejaVuSans-74" d="M 1172 4494 
L 1172 3500 
L 2356 3500 
L 2356 3053 
L 1172 3053 
L 1172 1153 
Q 1172 725 1289 603 
Q 1406 481 1766 481 
L 2356 481 
L 2356 0 
L 1766 0 
Q 1100 0 847 248 
Q 594 497 594 1153 
L 594 3053 
L 172 3053 
L 172 3500 
L 594 3500 
L 594 4494 
L 1172 4494 
z
" transform="scale(0.015625)"/>
       <path id="DejaVuSans-79" d="M 2059 -325 
Q 1816 -950 1584 -1140 
Q 1353 -1331 966 -1331 
L 506 -1331 
L 506 -850 
L 844 -850 
Q 1081 -850 1212 -737 
Q 1344 -625 1503 -206 
L 1606 56 
L 191 3500 
L 800 3500 
L 1894 763 
L 2988 3500 
L 3597 3500 
L 2059 -325 
z
" transform="scale(0.015625)"/>
      </defs>
      <use xlink:href="#DejaVuSans-44"/>
      <use xlink:href="#DejaVuSans-65" x="77.001953"/>
      <use xlink:href="#DejaVuSans-6e" x="138.525391"/>
      <use xlink:href="#DejaVuSans-73" x="201.904297"/>
      <use xlink:href="#DejaVuSans-69" x="254.003906"/>
      <use xlink:href="#DejaVuSans-74" x="281.787109"/>
      <use xlink:href="#DejaVuSans-79" x="320.996094"/>
     </g>
    </g>
   </g>
   <g id="line2d_15">
    <path d="M -1 307.584 
L 57.6 307.584 
L 57.6 307.584 
L 64.7424 307.584 
L 64.7424 307.584 
L 71.8848 307.584 
L 71.8848 307.551988 
L 79.0272 307.551988 
L 79.0272 307.584 
L 86.1696 307.584 
L 86.1696 307.584 
L 93.312 307.584 
L 93.312 307.487964 
L 100.4544 307.487964 
L 100.4544 307.13583 
L 107.5968 307.13583 
L 107.5968 307.039794 
L 114.7392 307.039794 
L 114.7392 306.303515 
L 121.8816 306.303515 
L 121.8816 305.503212 
L 129.024 305.503212 
L 129.024 304.062666 
L 136.1664 304.062666 
L 136.1664 301.213587 
L 143.3088 301.213587 
L 143.3088 296.699877 
L 150.4512 296.699877 
L 150.4512 290.457513 
L 157.5936 290.457513 
L 157.5936 279.509366 
L 164.736 279.509366 
L 164.736 266.160309 
L 171.8784 266.160309 
L 171.8784 246.376815 
L 179.0208 246.376815 
L 179.0208 225.024728 
L 186.1632 225.024728 
L 186.1632 195.70162 
L 193.3056 195.70162 
L 193.3056 167.466925 
L 200.448 167.466925 
L 200.448 133.95023 
L 207.5904 133.95023 
L 207.5904 108.084432 
L 214.7328 108.084432 
L 214.7328 87.404599 
L 221.8752 87.404599 
L 221.8752 65.73239 
L 229.0176 65.73239 
L 229.0176 54.144 
L 236.16 54.144 
L 236.16 55.104364 
L 243.3024 55.104364 
L 243.3024 67.172935 
L 250.4448 67.172935 
L 250.4448 81.194246 
L 257.5872 81.194246 
L 257.5872 107.028032 
L 264.7296 107.028032 
L 264.7296 137.503576 
L 271.872 137.503576 
L 271.872 167.370889 
L 279.0144 167.370889 
L 279.0144 197.142166 
L 286.1568 197.142166 
L 286.1568 221.983576 
L 293.2992 221.983576 
L 293.2992 246.344803 
L 300.4416 246.344803 
L 300.4416 263.471291 
L 307.584 263.471291 
L 307.584 279.605402 
L 314.7264 279.605402 
L 314.7264 288.632822 
L 321.8688 288.632822 
L 321.8688 296.411768 
L 329.0112 296.411768 
L 329.0112 300.605357 
L 336.1536 300.605357 
L 336.1536 303.550472 
L 343.296 303.550472 
L 343.296 305.887357 
L 350.4384 305.887357 
L 350.4384 305.983394 
L 357.5808 305.983394 
L 357.5808 307.199854 
L 364.7232 307.199854 
L 364.7232 307.231867 
L 371.8656 307.231867 
L 371.8656 307.455951 
L 379.008 307.455951 
L 379.008 307.455951 
L 386.1504 307.455951 
L 386.1504 307.551988 
L 393.2928 307.551988 
L 393.2928 307.584 
L 400.4352 307.584 
L 400.4352 307.584 
L 407.5776 307.584 
L 407.5776 307.584 
L 414.72 307.584 
L 414.72 307.584 
L 461.8 307.584 
" clip-path="url(#pd907996dfa)" style="fill: none; stroke: #c44e52; stroke-width: 1.5; stroke-linecap: round"/>
   </g>
   <g id="line2d_16">
    <path d="M -1 307.584 
L 57.6 307.584 
L 57.6 307.295891 
L 64.7424 307.295891 
L 64.7424 307.263879 
L 71.8848 307.263879 
L 71.8848 306.943757 
L 79.0272 306.943757 
L 79.0272 306.431563 
L 86.1696 306.431563 
L 86.1696 306.495588 
L 93.312 306.495588 
L 93.312 305.63126 
L 100.4544 305.63126 
L 100.4544 305.567236 
L 107.5968 305.567236 
L 107.5968 304.4148 
L 114.7392 304.4148 
L 114.7392 303.870593 
L 121.8816 303.870593 
L 121.8816 302.045902 
L 129.024 302.045902 
L 129.024 298.780665 
L 136.1664 298.780665 
L 136.1664 294.523053 
L 143.3088 294.523053 
L 143.3088 290.521537 
L 150.4512 290.521537 
L 150.4512 283.286797 
L 157.5936 283.286797 
L 157.5936 273.843219 
L 164.736 273.843219 
L 164.736 260.30209 
L 171.8784 260.30209 
L 171.8784 245.928646 
L 179.0208 245.928646 
L 179.0208 225.728994 
L 186.1632 225.728994 
L 186.1632 203.288494 
L 193.3056 203.288494 
L 193.3056 172.364781 
L 200.448 172.364781 
L 200.448 144.546243 
L 207.5904 144.546243 
L 207.5904 120.024955 
L 214.7328 120.024955 
L 214.7328 91.278066 
L 221.8752 91.278066 
L 221.8752 69.733905 
L 229.0176 69.733905 
L 229.0176 56.929055 
L 236.16 56.929055 
L 236.16 62.659225 
L 243.3024 62.659225 
L 243.3024 72.647009 
L 250.4448 72.647009 
L 250.4448 89.037217 
L 257.5872 89.037217 
L 257.5872 117.207888 
L 264.7296 117.207888 
L 264.7296 145.69868 
L 271.872 145.69868 
L 271.872 172.844962 
L 279.0144 172.844962 
L 279.0144 201.079657 
L 286.1568 201.079657 
L 286.1568 226.305213 
L 293.2992 226.305213 
L 293.2992 248.585652 
L 300.4416 248.585652 
L 300.4416 260.878308 
L 307.584 260.878308 
L 307.584 273.459074 
L 314.7264 273.459074 
L 314.7264 283.959051 
L 321.8688 283.959051 
L 321.8688 290.201416 
L 329.0112 290.201416 
L 329.0112 295.515429 
L 336.1536 295.515429 
L 336.1536 298.972738 
L 343.296 298.972738 
L 343.296 301.40566 
L 350.4384 301.40566 
L 350.4384 302.91023 
L 357.5808 302.91023 
L 357.5808 303.96663 
L 364.7232 303.96663 
L 364.7232 305.183091 
L 371.8656 305.183091 
L 371.8656 305.919369 
L 379.008 305.919369 
L 379.008 306.239491 
L 386.1504 306.239491 
L 386.1504 306.719673 
L 393.2928 306.719673 
L 393.2928 306.911745 
L 400.4352 306.911745 
L 400.4352 307.231867 
L 407.5776 307.231867 
L 407.5776 307.391927 
L 414.72 307.391927 
L 414.72 307.584 
L 461.8 307.584 
" clip-path="url(#pd907996dfa)" style="fill: none; stroke: #55a868; stroke-width: 1.5; stroke-linecap: round"/>
   </g>
   <g id="line2d_17">
    <path d="M -1 307.584 
L 57.6 307.584 
L 57.6 299.324872 
L 64.7424 299.324872 
L 64.7424 298.780665 
L 71.8848 298.780665 
L 71.8848 297.596217 
L 79.0272 297.596217 
L 79.0272 296.987986 
L 86.1696 296.987986 
L 86.1696 296.251707 
L 93.312 296.251707 
L 93.312 295.931586 
L 100.4544 295.931586 
L 100.4544 293.88281 
L 107.5968 293.88281 
L 107.5968 290.425501 
L 114.7392 290.425501 
L 114.7392 290.937695 
L 121.8816 290.937695 
L 121.8816 288.024591 
L 129.024 288.024591 
L 129.024 285.30356 
L 136.1664 285.30356 
L 136.1664 284.471245 
L 143.3088 284.471245 
L 143.3088 278.645038 
L 150.4512 278.645038 
L 150.4512 272.94688 
L 157.5936 272.94688 
L 157.5936 270.738043 
L 164.736 270.738043 
L 164.736 262.41489 
L 171.8784 262.41489 
L 171.8784 257.965205 
L 179.0208 257.965205 
L 179.0208 245.256391 
L 186.1632 245.256391 
L 186.1632 232.579589 
L 193.3056 232.579589 
L 193.3056 215.197005 
L 200.448 215.197005 
L 200.448 192.628456 
L 207.5904 192.628456 
L 207.5904 167.114792 
L 214.7328 167.114792 
L 214.7328 141.569116 
L 221.8752 141.569116 
L 221.8752 124.826774 
L 229.0176 124.826774 
L 229.0176 100.913716 
L 236.16 100.913716 
L 236.16 106.291753 
L 243.3024 106.291753 
L 243.3024 122.617937 
L 250.4448 122.617937 
L 250.4448 147.299286 
L 257.5872 147.299286 
L 257.5872 169.963871 
L 264.7296 169.963871 
L 264.7296 194.64522 
L 271.872 194.64522 
L 271.872 212.796095 
L 279.0144 212.796095 
L 279.0144 232.451541 
L 286.1568 232.451541 
L 286.1568 245.160355 
L 293.2992 245.160355 
L 293.2992 255.532283 
L 300.4416 255.532283 
L 300.4416 266.128297 
L 307.584 266.128297 
L 307.584 270.609995 
L 314.7264 270.609995 
L 314.7264 273.55511 
L 321.8688 273.55511 
L 321.8688 279.157232 
L 329.0112 279.157232 
L 329.0112 282.358445 
L 336.1536 282.358445 
L 336.1536 284.983439 
L 343.296 284.983439 
L 343.296 288.728858 
L 350.4384 288.728858 
L 350.4384 291.545925 
L 357.5808 291.545925 
L 357.5808 291.866046 
L 364.7232 291.866046 
L 364.7232 292.890434 
L 371.8656 292.890434 
L 371.8656 295.963598 
L 379.008 295.963598 
L 379.008 296.571829 
L 386.1504 296.571829 
L 386.1504 296.219695 
L 393.2928 296.219695 
L 393.2928 297.212071 
L 400.4352 297.212071 
L 400.4352 299.132799 
L 407.5776 299.132799 
L 407.5776 299.484932 
L 414.72 299.484932 
L 414.72 307.584 
L 461.8 307.584 
" clip-path="url(#pd907996dfa)" style="fill: none; stroke: #dd8452; stroke-width: 1.5; stroke-linecap: round"/>
   </g>
   <g id="line2d_18">
    <path d="M -1 307.584 
L 57.6 307.584 
L 57.6 301.072453 
L 64.7424 301.072453 
L 64.7424 302.145785 
L 71.8848 302.145785 
L 71.8848 301.501786 
L 79.0272 301.501786 
L 79.0272 301.322897 
L 86.1696 301.322897 
L 86.1696 300.392676 
L 93.312 300.392676 
L 93.312 300.857786 
L 100.4544 300.857786 
L 100.4544 300.64312 
L 107.5968 300.64312 
L 107.5968 299.784454 
L 114.7392 299.784454 
L 114.7392 299.498233 
L 121.8816 299.498233 
L 121.8816 300.034899 
L 129.024 300.034899 
L 129.024 298.639567 
L 136.1664 298.639567 
L 136.1664 298.031346 
L 143.3088 298.031346 
L 143.3088 295.920459 
L 150.4512 295.920459 
L 150.4512 296.38557 
L 157.5936 296.38557 
L 157.5936 292.807797 
L 164.736 292.807797 
L 164.736 293.201352 
L 171.8784 293.201352 
L 171.8784 291.555576 
L 179.0208 291.555576 
L 179.0208 288.872246 
L 186.1632 288.872246 
L 186.1632 285.151362 
L 193.3056 285.151362 
L 193.3056 281.001145 
L 200.448 281.001145 
L 200.448 275.992263 
L 207.5904 275.992263 
L 207.5904 267.298274 
L 214.7328 267.298274 
L 214.7328 249.731407 
L 221.8752 249.731407 
L 221.8752 232.414985 
L 229.0176 232.414985 
L 229.0176 206.118352 
L 236.16 206.118352 
L 236.16 208.551238 
L 243.3024 208.551238 
L 243.3024 232.951651 
L 250.4448 232.951651 
L 250.4448 255.133845 
L 257.5872 255.133845 
L 257.5872 268.30005 
L 264.7296 268.30005 
L 264.7296 276.600484 
L 271.872 276.600484 
L 271.872 281.215811 
L 279.0144 281.215811 
L 279.0144 285.330251 
L 286.1568 285.330251 
L 286.1568 288.836468 
L 293.2992 288.836468 
L 293.2992 291.591354 
L 300.4416 291.591354 
L 300.4416 293.487574 
L 307.584 293.487574 
L 307.584 294.847127 
L 314.7264 294.847127 
L 314.7264 294.847127 
L 321.8688 294.847127 
L 321.8688 296.636014 
L 329.0112 296.636014 
L 329.0112 298.138679 
L 336.1536 298.138679 
L 336.1536 298.711122 
L 343.296 298.711122 
L 343.296 299.891788 
L 350.4384 299.891788 
L 350.4384 299.999121 
L 357.5808 299.999121 
L 357.5808 299.927565 
L 364.7232 299.927565 
L 364.7232 300.571565 
L 371.8656 300.571565 
L 371.8656 300.929342 
L 379.008 300.929342 
L 379.008 302.110007 
L 386.1504 302.110007 
L 386.1504 301.251341 
L 393.2928 301.251341 
L 393.2928 302.074229 
L 400.4352 302.074229 
L 400.4352 301.859563 
L 407.5776 301.859563 
L 407.5776 302.002674 
L 414.72 302.002674 
L 414.72 307.584 
L 461.8 307.584 
" clip-path="url(#pd907996dfa)" style="fill: none; stroke: #4c72b0; stroke-width: 1.5; stroke-linecap: round"/>
   </g>
   <g id="patch_3">
    <path d="M 57.6 307.584 
L 57.6 41.472 
" style="fill: none; stroke: #cccccc; stroke-width: 1.25; stroke-linejoin: miter; stroke-linecap: square"/>
   </g>
   <g id="patch_4">
    <path d="M 414.72 307.584 
L 414.72 41.472 
" style="fill: none; stroke: #cccccc; stroke-width: 1.25; stroke-linejoin: miter; stroke-linecap: square"/>
   </g>
   <g id="patch_5">
    <path d="M 57.6 307.584 
L 414.72 307.584 
" style="fill: none; stroke: #cccccc; stroke-width: 1.25; stroke-linejoin: miter; stroke-linecap: square"/>
   </g>
   <g id="patch_6">
    <path d="M 57.6 41.472 
L 414.72 41.472 
" style="fill: none; stroke: #cccccc; stroke-width: 1.25; stroke-linejoin: miter; stroke-linecap: square"/>
   </g>
   <g id="text_17">
    <!-- Student t Distribution -->
    <g style="fill: #262626" transform="translate(171.372187 35.472)scale(0.12 -0.12)">
     <defs>
      <path id="DejaVuSans-53" d="M 3425 4513 
L 3425 3897 
Q 3066 4069 2747 4153 
Q 2428 4238 2131 4238 
Q 1616 4238 1336 4038 
Q 1056 3838 1056 3469 
Q 1056 3159 1242 3001 
Q 1428 2844 1947 2747 
L 2328 2669 
Q 3034 2534 3370 2195 
Q 3706 1856 3706 1288 
Q 3706 609 3251 259 
Q 2797 -91 1919 -91 
Q 1588 -91 1214 -16 
Q 841 59 441 206 
L 441 856 
Q 825 641 1194 531 
Q 1563 422 1919 422 
Q 2459 422 2753 634 
Q 3047 847 3047 1241 
Q 3047 1584 2836 1778 
Q 2625 1972 2144 2069 
L 1759 2144 
Q 1053 2284 737 2584 
Q 422 2884 422 3419 
Q 422 4038 858 4394 
Q 1294 4750 2059 4750 
Q 2388 4750 2728 4690 
Q 3069 4631 3425 4513 
z
" transform="scale(0.015625)"/>
      <path id="DejaVuSans-64" d="M 2906 2969 
L 2906 4863 
L 3481 4863 
L 3481 0 
L 2906 0 
L 2906 525 
Q 2725 213 2448 61 
Q 2172 -91 1784 -91 
Q 1150 -91 751 415 
Q 353 922 353 1747 
Q 353 2572 751 3078 
Q 1150 3584 1784 3584 
Q 2172 3584 2448 3432 
Q 2725 3281 2906 2969 
z
M 947 1747 
Q 947 1113 1208 752 
Q 1469 391 1925 391 
Q 2381 391 2643 752 
Q 2906 1113 2906 1747 
Q 2906 2381 2643 2742 
Q 2381 3103 1925 3103 
Q 1469 3103 1208 2742 
Q 947 2381 947 1747 
z
" transform="scale(0.015625)"/>
      <path id="DejaVuSans-20" transform="scale(0.015625)"/>
      <path id="DejaVuSans-72" d="M 2631 2963 
Q 2534 3019 2420 3045 
Q 2306 3072 2169 3072 
Q 1681 3072 1420 2755 
Q 1159 2438 1159 1844 
L 1159 0 
L 581 0 
L 581 3500 
L 1159 3500 
L 1159 2956 
Q 1341 3275 1631 3429 
Q 1922 3584 2338 3584 
Q 2397 3584 2469 3576 
Q 2541 3569 2628 3553 
L 2631 2963 
z
" transform="scale(0.015625)"/>
      <path id="DejaVuSans-62" d="M 3116 1747 
Q 3116 2381 2855 2742 
Q 2594 3103 2138 3103 
Q 1681 3103 1420 2742 
Q 1159 2381 1159 1747 
Q 1159 1113 1420 752 
Q 1681 391 2138 391 
Q 2594 391 2855 752 
Q 3116 1113 3116 1747 
z
M 1159 2969 
Q 1341 3281 1617 3432 
Q 1894 3584 2278 3584 
Q 2916 3584 3314 3078 
Q 3713 2572 3713 1747 
Q 3713 922 3314 415 
Q 2916 -91 2278 -91 
Q 1894 -91 1617 61 
Q 1341 213 1159 525 
L 1159 0 
L 581 0 
L 581 4863 
L 1159 4863 
L 1159 2969 
z
" transform="scale(0.015625)"/>
      <path id="DejaVuSans-6f" d="M 1959 3097 
Q 1497 3097 1228 2736 
Q 959 2375 959 1747 
Q 959 1119 1226 758 
Q 1494 397 1959 397 
Q 2419 397 2687 759 
Q 2956 1122 2956 1747 
Q 2956 2369 2687 2733 
Q 2419 3097 1959 3097 
z
M 1959 3584 
Q 2709 3584 3137 3096 
Q 3566 2609 3566 1747 
Q 3566 888 3137 398 
Q 2709 -91 1959 -91 
Q 1206 -91 779 398 
Q 353 888 353 1747 
Q 353 2609 779 3096 
Q 1206 3584 1959 3584 
z
" transform="scale(0.015625)"/>
     </defs>
     <use xlink:href="#DejaVuSans-53"/>
     <use xlink:href="#DejaVuSans-74" x="63.476562"/>
     <use xlink:href="#DejaVuSans-75" x="102.685547"/>
     <use xlink:href="#DejaVuSans-64" x="166.064453"/>
     <use xlink:href="#DejaVuSans-65" x="229.541016"/>
     <use xlink:href="#DejaVuSans-6e" x="291.064453"/>
     <use xlink:href="#DejaVuSans-74" x="354.443359"/>
     <use xlink:href="#DejaVuSans-20" x="393.652344"/>
     <use xlink:href="#DejaVuSans-74" x="425.439453"/>
     <use xlink:href="#DejaVuSans-20" x="464.648438"/>
     <use xlink:href="#DejaVuSans-44" x="496.435547"/>
     <use xlink:href="#DejaVuSans-69" x="573.4375"/>
     <use xlink:href="#DejaVuSans-73" x="601.220703"/>
     <use xlink:href="#DejaVuSans-74" x="653.320312"/>
     <use xlink:href="#DejaVuSans-72" x="692.529297"/>
     <use xlink:href="#DejaVuSans-69" x="733.642578"/>
     <use xlink:href="#DejaVuSans-62" x="761.425781"/>
     <use xlink:href="#DejaVuSans-75" x="824.902344"/>
     <use xlink:href="#DejaVuSans-74" x="888.28125"/>
     <use xlink:href="#DejaVuSans-69" x="927.490234"/>
     <use xlink:href="#DejaVuSans-6f" x="955.273438"/>
     <use xlink:href="#DejaVuSans-6e" x="1016.455078"/>
    </g>
   </g>
   <g id="legend_1">
    <g id="patch_7">
     <path d="M 263.994219 131.9695 
L 407.02 131.9695 
Q 409.22 131.9695 409.22 129.7695 
L 409.22 49.172 
Q 409.22 46.972 407.02 46.972 
L 263.994219 46.972 
Q 261.794219 46.972 261.794219 49.172 
L 261.794219 129.7695 
Q 261.794219 131.9695 263.994219 131.9695 
z
" style="fill: #ffffff; opacity: 0.8; stroke: #cccccc; stroke-linejoin: miter"/>
    </g>
    <g id="text_18">
     <!-- Distribution -->
     <g style="fill: #262626" transform="translate(300.504609 60.490125)scale(0.12 -0.12)">
      <use xlink:href="#DejaVuSans-44"/>
      <use xlink:href="#DejaVuSans-69" x="77.001953"/>
      <use xlink:href="#DejaVuSans-73" x="104.785156"/>
      <use xlink:href="#DejaVuSans-74" x="156.884766"/>
      <use xlink:href="#DejaVuSans-72" x="196.09375"/>
      <use xlink:href="#DejaVuSans-69" x="237.207031"/>
      <use xlink:href="#DejaVuSans-62" x="264.990234"/>
      <use xlink:href="#DejaVuSans-75" x="328.466797"/>
      <use xlink:href="#DejaVuSans-74" x="391.845703"/>
      <use xlink:href="#DejaVuSans-69" x="431.054688"/>
      <use xlink:href="#DejaVuSans-6f" x="458.837891"/>
      <use xlink:href="#DejaVuSans-6e" x="520.019531"/>
     </g>
    </g>
    <g id="line2d_19">
     <path d="M 266.194219 72.994031 
L 277.194219 72.994031 
L 288.194219 72.994031 
" style="fill: none; stroke: #4c72b0; stroke-width: 1.5; stroke-linecap: round"/>
    </g>
    <g id="text_19">
     <!-- pp.t(0.1) -->
     <g style="fill: #262626" transform="translate(296.994219 76.844031)scale(0.11 -0.11)">
      <defs>
       <path id="DejaVuSans-70" d="M 1159 525 
L 1159 -1331 
L 581 -1331 
L 581 3500 
L 1159 3500 
L 1159 2969 
Q 1341 3281 1617 3432 
Q 1894 3584 2278 3584 
Q 2916 3584 3314 3078 
Q 3713 2572 3713 1747 
Q 3713 922 3314 415 
Q 2916 -91 2278 -91 
Q 1894 -91 1617 61 
Q 1341 213 1159 525 
z
M 3116 1747 
Q 3116 2381 2855 2742 
Q 2594 3103 2138 3103 
Q 1681 3103 1420 2742 
Q 1159 2381 1159 1747 
Q 1159 1113 1420 752 
Q 1681 391 2138 391 
Q 2594 391 2855 752 
Q 3116 1113 3116 1747 
z
" transform="scale(0.015625)"/>
       <path id="DejaVuSans-28" d="M 1984 4856 
Q 1566 4138 1362 3434 
Q 1159 2731 1159 2009 
Q 1159 1288 1364 580 
Q 1569 -128 1984 -844 
L 1484 -844 
Q 1016 -109 783 600 
Q 550 1309 550 2009 
Q 550 2706 781 3412 
Q 1013 4119 1484 4856 
L 1984 4856 
z
" transform="scale(0.015625)"/>
       <path id="DejaVuSans-29" d="M 513 4856 
L 1013 4856 
Q 1481 4119 1714 3412 
Q 1947 2706 1947 2009 
Q 1947 1309 1714 600 
Q 1481 -109 1013 -844 
L 513 -844 
Q 928 -128 1133 580 
Q 1338 1288 1338 2009 
Q 1338 2731 1133 3434 
Q 928 4138 513 4856 
z
" transform="scale(0.015625)"/>
      </defs>
      <use xlink:href="#DejaVuSans-70"/>
      <use xlink:href="#DejaVuSans-70" x="63.476562"/>
      <use xlink:href="#DejaVuSans-2e" x="126.953125"/>
      <use xlink:href="#DejaVuSans-74" x="158.740234"/>
      <use xlink:href="#DejaVuSans-28" x="197.949219"/>
      <use xlink:href="#DejaVuSans-30" x="236.962891"/>
      <use xlink:href="#DejaVuSans-2e" x="300.585938"/>
      <use xlink:href="#DejaVuSans-31" x="332.373047"/>
      <use xlink:href="#DejaVuSans-29" x="395.996094"/>
     </g>
    </g>
    <g id="line2d_20">
     <path d="M 266.194219 89.139969 
L 277.194219 89.139969 
L 288.194219 89.139969 
" style="fill: none; stroke: #dd8452; stroke-width: 1.5; stroke-linecap: round"/>
    </g>
    <g id="text_20">
     <!-- pp.t(1.0) -->
     <g style="fill: #262626" transform="translate(296.994219 92.989969)scale(0.11 -0.11)">
      <use xlink:href="#DejaVuSans-70"/>
      <use xlink:href="#DejaVuSans-70" x="63.476562"/>
      <use xlink:href="#DejaVuSans-2e" x="126.953125"/>
      <use xlink:href="#DejaVuSans-74" x="158.740234"/>
      <use xlink:href="#DejaVuSans-28" x="197.949219"/>
      <use xlink:href="#DejaVuSans-31" x="236.962891"/>
      <use xlink:href="#DejaVuSans-2e" x="300.585938"/>
      <use xlink:href="#DejaVuSans-30" x="332.373047"/>
      <use xlink:href="#DejaVuSans-29" x="395.996094"/>
     </g>
    </g>
    <g id="line2d_21">
     <path d="M 266.194219 105.285906 
L 277.194219 105.285906 
L 288.194219 105.285906 
" style="fill: none; stroke: #55a868; stroke-width: 1.5; stroke-linecap: round"/>
    </g>
    <g id="text_21">
     <!-- pp.t(10.0) -->
     <g style="fill: #262626" transform="translate(296.994219 109.135906)scale(0.11 -0.11)">
      <use xlink:href="#DejaVuSans-70"/>
      <use xlink:href="#DejaVuSans-70" x="63.476562"/>
      <use xlink:href="#DejaVuSans-2e" x="126.953125"/>
      <use xlink:href="#DejaVuSans-74" x="158.740234"/>
      <use xlink:href="#DejaVuSans-28" x="197.949219"/>
      <use xlink:href="#DejaVuSans-31" x="236.962891"/>
      <use xlink:href="#DejaVuSans-30" x="300.585938"/>
      <use xlink:href="#DejaVuSans-2e" x="364.208984"/>
      <use xlink:href="#DejaVuSans-30" x="395.996094"/>
      <use xlink:href="#DejaVuSans-29" x="459.619141"/>
     </g>
    </g>
    <g id="line2d_22">
     <path d="M 266.194219 121.431844 
L 277.194219 121.431844 
L 288.194219 121.431844 
" style="fill: none; stroke: #c44e52; stroke-width: 1.5; stroke-linecap: round"/>
    </g>
    <g id="text_22">
     <!-- pp.Normal(0.0, 1.0) -->
     <g style="fill: #262626" transform="translate(296.994219 125.281844)scale(0.11 -0.11)">
      <defs>
       <path id="DejaVuSans-4e" d="M 628 4666 
L 1478 4666 
L 3547 763 
L 3547 4666 
L 4159 4666 
L 4159 0 
L 3309 0 
L 1241 3903 
L 1241 0 
L 628 0 
L 628 4666 
z
" transform="scale(0.015625)"/>
       <path id="DejaVuSans-6d" d="M 3328 2828 
Q 3544 3216 3844 3400 
Q 4144 3584 4550 3584 
Q 5097 3584 5394 3201 
Q 5691 2819 5691 2113 
L 5691 0 
L 5113 0 
L 5113 2094 
Q 5113 2597 4934 2840 
Q 4756 3084 4391 3084 
Q 3944 3084 3684 2787 
Q 3425 2491 3425 1978 
L 3425 0 
L 2847 0 
L 2847 2094 
Q 2847 2600 2669 2842 
Q 2491 3084 2119 3084 
Q 1678 3084 1418 2786 
Q 1159 2488 1159 1978 
L 1159 0 
L 581 0 
L 581 3500 
L 1159 3500 
L 1159 2956 
Q 1356 3278 1631 3431 
Q 1906 3584 2284 3584 
Q 2666 3584 2933 3390 
Q 3200 3197 3328 2828 
z
" transform="scale(0.015625)"/>
       <path id="DejaVuSans-2c" d="M 750 794 
L 1409 794 
L 1409 256 
L 897 -744 
L 494 -744 
L 750 256 
L 750 794 
z
" transform="scale(0.015625)"/>
      </defs>
      <use xlink:href="#DejaVuSans-70"/>
      <use xlink:href="#DejaVuSans-70" x="63.476562"/>
      <use xlink:href="#DejaVuSans-2e" x="126.953125"/>
      <use xlink:href="#DejaVuSans-4e" x="158.740234"/>
      <use xlink:href="#DejaVuSans-6f" x="233.544922"/>
      <use xlink:href="#DejaVuSans-72" x="294.726562"/>
      <use xlink:href="#DejaVuSans-6d" x="334.089844"/>
      <use xlink:href="#DejaVuSans-61" x="431.501953"/>
      <use xlink:href="#DejaVuSans-6c" x="492.78125"/>
      <use xlink:href="#DejaVuSans-28" x="520.564453"/>
      <use xlink:href="#DejaVuSans-30" x="559.578125"/>
      <use xlink:href="#DejaVuSans-2e" x="623.201172"/>
      <use xlink:href="#DejaVuSans-30" x="654.988281"/>
      <use xlink:href="#DejaVuSans-2c" x="718.611328"/>
      <use xlink:href="#DejaVuSans-20" x="750.398438"/>
      <use xlink:href="#DejaVuSans-31" x="782.185547"/>
      <use xlink:href="#DejaVuSans-2e" x="845.808594"/>
      <use xlink:href="#DejaVuSans-30" x="877.595703"/>
      <use xlink:href="#DejaVuSans-29" x="941.21875"/>
     </g>
    </g>
   </g>
  </g>
 </g>
 <defs>
  <clipPath id="pd907996dfa">
   <rect x="57.6" y="41.472" width="357.12" height="266.112"/>
  </clipPath>
 </defs>
</svg>
